<svg width="376" height="466" viewBox="0 0 376 466" fill="none" xmlns="http://www.w3.org/2000/svg">
<path d="M184.371 17.2292C187.351 16.0735 192.811 14.5757 195.909 15.2833C200.917 19.2103 192.613 19.8943 199.851 25.6728L200.068 25.8438C215.837 14.9178 222.972 22.53 229.335 31.9466C230.958 34.3464 242.661 28.5561 249.706 39.0105C251.551 41.7464 252.914 44.7713 253.735 47.9672C254.656 47.9967 255.507 48.0792 256.405 47.8905C263.067 49.8364 260.683 55.1608 260.905 59.589C261.039 62.2955 267.418 62.0891 268.087 67.0715C266.46 69.3594 263.034 68.3216 260.424 67.9973C262.945 72.5258 268.236 80.8515 266.233 85.8811C263.102 93.747 257.931 101.819 253.859 109.302C253.62 109.744 254.578 111.69 254.805 112.144C261.517 125.358 246.598 141.425 231.918 140.382C228.707 144.58 226.074 147.505 222.518 151.379C229.915 156.408 229.76 161.19 235.912 167.788C261.146 165.3 263.862 160.029 288.825 173.378C299.422 171.067 302.013 170.029 311.543 176.155L312.129 176.533C315.362 174.787 317.809 173.985 321.421 173.195C320.877 160.323 319.163 147.357 315.335 135.022C304.017 133.082 309.032 141.19 298.098 140.234C295.717 140.022 290.831 138.365 288.215 138.218C282.588 141.284 276.787 144.869 271.933 138.076C270.064 135.464 264.77 120.269 265.687 118.058C272.243 102.232 274.783 92.0488 294.268 98.1103C306.807 101.908 321.282 103.217 332.673 109.773C335.387 112.002 338.72 116.513 340.295 119.432C354.772 146.272 372.744 170.117 375.626 201.398C377.409 220.75 373.186 224.376 354.958 229.99C350.464 243.693 342.85 239.613 331.828 240.922C323.553 241.906 325.449 244.041 316.959 239.489L316.596 239.524C315.154 239.677 313.599 240.179 312.152 240.42C298.347 242.72 284.649 242.761 270.683 242.107C266.434 254.831 262.177 267.921 258.793 280.551C255.501 293.27 249.78 305.145 253.183 318.513C253.458 319.598 252.363 329.368 252.276 331.485C251.735 344.781 257.289 356.421 258.903 369.004C259.236 371.61 255.135 378.391 253.529 380.796L255.084 388.886C257.664 399.217 260.699 410.42 261.467 421.051C263.879 432.426 267.625 443.393 270.412 454.655C266.392 457.42 262.122 459.366 257.581 461.106C236.033 466.607 212.581 467.456 191.197 460.675C185.162 454.455 180.564 445.628 175.536 438.475C174.643 446.052 173.691 453.594 172.435 461.123C157.262 466.483 135.451 465.033 119.949 461C115.524 459.85 97.8996 455.162 95.9367 451.565C92.4647 445.203 92.8597 387.165 95.3661 378.686C97.2028 373.55 92.1181 371.645 90.4264 368.113C87.3782 361.751 93.8724 348.873 95.5111 341.538C91.1573 332.764 98.2126 325.783 98.637 317.162C99.6621 296.354 103.163 275.528 100.995 254.719C100.292 247.968 100.532 239.943 100.548 233.227C93.5871 231.263 83.8285 230.703 76.4383 229.359C66.2512 227.507 57.4039 224.889 47.5174 221.976C46.1221 222.896 42.4338 225.326 40.6401 224.636C34.2509 222.183 27.9251 219.376 21.7447 216.428C17.9265 214.606 17.1248 210.62 16.2926 206.852C11.2794 204.317 0.135436 198.638 0.0155386 192.37C-0.56874 161.461 15.4075 138.542 33.8978 115.64C43.1041 103.735 48.131 91.0405 65.5491 90.7516C72.6062 90.6337 98.4213 87.5852 105.111 92.1431C109.437 95.0913 113.042 109.172 113.665 114.184C114.461 120.587 107.093 119.762 108.418 125.358C109.415 129.344 104.937 134.373 100.958 134.438C95.3113 134.827 92.2195 132.669 88.095 129.32C80.6324 130.093 69.7962 131.136 67.5209 121.814L67.4749 121.619C61.0338 121.065 56.9665 153.46 56.4413 158.466C58.976 158.902 65.3723 162.045 65.8338 161.998C76.7083 160.878 83.6404 158.047 94.0993 163.838C105.702 160.029 118.88 155.447 130.936 158.513C137.72 160.241 143.743 162.21 150.678 163.584C153.479 160.235 156.967 157.871 160.534 155.429C153.161 146.939 152.522 143.33 147.201 133.866C144.571 129.809 140.899 126.431 138.773 122.044C134.983 114.225 133.159 104.526 142.822 100.044C143.057 98.753 142.068 98.1693 141.953 97.0372C141.479 92.3672 142.145 91.4061 139.159 87.6501C136.316 84.637 136.395 79.2241 137.513 75.5212L136.524 74.9551C126.905 69.6247 133.463 69.0056 133.369 64.0703C133.227 56.6644 133.242 54.2763 138.754 48.6806C139.763 42.9788 143.85 29.3463 152.211 35.6083C152.616 35.7616 153.454 36.1213 153.832 36.1626C155.513 24.9711 163.004 17.3706 174.703 20.0004C176.1 21.6279 177.591 24.0925 179.235 24.2517C180.651 20.8141 181.378 19.4226 184.371 17.2292Z" fill="#0D0B0C"/>
<path d="M109.536 385.089C115.945 388.763 134.828 401.576 141.474 400.738C148.573 396.77 150.896 380.803 155.852 376.256C159.976 378.939 166.397 398.799 167.468 403.869C168.557 409.282 169.608 414.701 170.62 420.132L171.313 420.173C171.825 415.503 170.661 410.326 170.174 405.656L170.66 405.379C170.898 406.906 171.275 412.236 172.241 413.068C185.804 412.26 199.392 408.622 211.87 403.227C215.952 401.464 220.08 398.457 224.345 397.395C225.946 397 227.628 397.059 228.876 398.244C229.765 399.093 230.591 401.016 230.908 402.212L231.392 402.101C231.647 400.957 231.816 400.149 232.659 399.276L234.01 399.477C241.745 398.474 248.593 392.778 255.084 388.886C257.664 399.217 260.699 410.42 261.467 421.051C263.879 432.426 267.625 443.393 270.412 454.655C266.392 457.42 262.122 459.366 257.581 461.106C236.033 466.607 212.581 467.456 191.197 460.675C185.162 454.455 180.564 445.628 175.536 438.475C174.643 446.052 173.691 453.594 172.435 461.123C157.262 466.483 135.451 465.033 119.949 461C115.524 459.85 97.8996 455.162 95.9367 451.565C92.4647 445.203 92.8597 387.165 95.3661 378.686L95.4403 379.747L96.0834 380.018L95.9514 381.298C96.2349 379.93 96.5326 377.218 97.4516 376.274C101.529 378.373 104.546 380.119 107.861 383.391C104.958 390.479 101.848 397.083 97.9909 403.722C104.271 398.327 106.538 392.613 109.536 385.089Z" fill="#1C1918"/>
<path d="M255.084 388.886C257.664 399.217 260.699 410.42 261.467 421.051C263.879 432.426 267.625 443.393 270.412 454.655C266.392 457.42 262.122 459.366 257.581 461.106L256.166 461C251.471 457.816 242.202 421.547 239.2 414.725C237.74 411.406 231.254 403.999 230.908 402.212L231.392 402.101C231.647 400.957 231.816 400.149 232.659 399.276L234.01 399.477C241.745 398.474 248.593 392.778 255.084 388.886Z" fill="#0D0B0C"/>
<path d="M255.084 388.886C257.664 399.217 260.699 410.42 261.467 421.051C255.764 418.186 252.125 411.199 246.3 407.915C242.692 405.881 235.219 404.513 233.069 401.146L234.01 399.477C241.745 398.474 248.593 392.778 255.084 388.886Z" fill="#4E4444"/>
<path d="M184.371 17.2292C187.351 16.0735 192.811 14.5757 195.909 15.2833C200.917 19.2103 192.613 19.8943 199.851 25.6728L200.068 25.8438C215.837 14.9178 222.972 22.53 229.335 31.9466C230.958 34.3464 242.661 28.5561 249.706 39.0105C251.551 41.7464 252.914 44.7713 253.735 47.9672C254.656 47.9967 255.507 48.0792 256.405 47.8905C263.067 49.8364 260.683 55.1608 260.905 59.589C261.039 62.2955 267.418 62.0891 268.087 67.0715C266.46 69.3594 263.034 68.3216 260.424 67.9973C262.945 72.5258 268.236 80.8515 266.233 85.8811C263.102 93.747 257.931 101.819 253.859 109.302C253.62 109.744 254.578 111.69 254.805 112.144C253.656 116.495 253.895 120.629 253.307 122.958C252.567 116.448 253.971 106.029 242.596 110.823C240.699 110.292 240.527 110.08 239.278 108.535C235.042 109.738 234.676 106.454 231.78 108.081L231.285 110.233C230.944 107.592 229.968 106.023 227.412 105.192C225.866 106.265 226.279 106.324 225.648 108.641C222.993 115.935 218.378 119.497 210.471 119.284L209.7 121.761C208.474 121.024 207.227 121.083 205.841 121.053C204.712 120.222 202.958 119.986 201.601 119.662C198.449 117.763 195.551 115.87 192.785 113.435C192.147 115.287 191.091 117.038 190.174 118.765C188.91 119.42 187.627 120.092 186.302 120.611C183.44 121.737 179.507 122.15 176.633 120.865C173.835 119.62 172.259 117.356 171.212 114.567C171.215 113.913 171.022 113.824 170.655 113.17C166.728 115.157 159.801 116.767 155.683 114.785C153.858 113.907 151.661 112.38 149.796 111.937L149.126 112.586L148.592 110.257C147.908 109.667 147.247 109.048 146.61 108.406C144.175 105.929 144.387 104.473 144.409 101.059L142.822 100.044C143.057 98.753 142.068 98.1693 141.953 97.0372C141.479 92.3672 142.145 91.4061 139.159 87.6501C136.316 84.637 136.395 79.2241 137.513 75.5212L136.524 74.9551C126.905 69.6247 133.463 69.0056 133.369 64.0703C133.227 56.6644 133.242 54.2763 138.754 48.6806C139.763 42.9788 143.85 29.3463 152.211 35.6083C152.616 35.7616 153.454 36.1213 153.832 36.1626C155.513 24.9711 163.004 17.3706 174.703 20.0004C176.1 21.6279 177.591 24.0925 179.235 24.2517C180.651 20.8141 181.378 19.4226 184.371 17.2292Z" fill="#0D0B0C"/>
<path d="M215.054 83.6583C218.007 85.7574 219.047 86.5652 221.539 89.1773C223.35 90.5099 224.203 90.9817 225.285 92.9216C225.643 96.2413 226.292 97.5621 229.723 97.6918C231.707 96.483 231.116 97.0963 231.803 94.3131C232 97.279 232.335 100.894 232.375 103.812L239.278 108.535C235.042 109.738 234.676 106.454 231.78 108.081L231.285 110.233C230.944 107.592 229.968 106.023 227.412 105.192C225.866 106.265 226.279 106.324 225.648 108.641C222.993 115.935 218.378 119.497 210.471 119.284L209.7 121.761C208.474 121.024 207.227 121.083 205.841 121.053C204.712 120.222 202.958 119.986 201.601 119.662C198.449 117.763 195.551 115.87 192.785 113.435C192.147 115.287 191.091 117.038 190.174 118.765C188.91 119.42 187.627 120.092 186.302 120.611C183.44 121.737 179.507 122.15 176.633 120.865C173.835 119.62 172.259 117.356 171.212 114.567C171.215 113.913 171.022 113.824 170.655 113.17C166.728 115.157 159.801 116.767 155.683 114.785C153.858 113.907 151.661 112.38 149.796 111.937L149.126 112.586L148.592 110.257C149.067 109.691 149.166 109.237 149.407 108.547L150.419 107.816L151.68 106.023C152.163 104.207 152.185 102.798 152.299 100.923L152.582 98.7296C152.715 94.4311 150.785 89.7788 155.35 88.4698C161.267 87.2905 176.483 85.0852 178.364 92.8803C180.47 91.5831 179.992 90.3979 180.895 87.8683C185.094 87.3966 191.339 85.9048 194.152 89.1891L194.448 89.5429L195.537 87.7622C200.122 86.294 204.633 86.748 209.495 86.8011C207.44 86.3589 206.402 85.6277 204.626 84.5722C209.818 82.9743 212.073 85.3446 215.054 83.6583Z" fill="#754129"/>
<path d="M155.35 88.4698C161.267 87.2905 176.483 85.0852 178.364 92.8803L177.394 95.0273C176.721 97.663 177.099 97.946 175.284 99.544L173.991 99.5322L174.745 101.578L174.106 102.793C167.953 98.9248 162.589 98.064 155.972 101.596L155.333 101.602C156.138 99.8506 156.122 99.5439 156.133 97.604L152.582 98.7296C152.715 94.4311 150.785 89.7788 155.35 88.4698Z" fill="#CA7D4B"/>
<path d="M155.35 88.4698C157.333 88.3636 159.222 88.0275 160.864 89.1124C162.864 92.5264 156.881 95.2572 156.133 97.604L152.582 98.7296C152.715 94.4311 150.785 89.7788 155.35 88.4698Z" fill="#D6CBAD"/>
<path d="M155.972 101.596C160.033 95.8174 168.376 96.92 173.991 99.5322L174.745 101.578L174.106 102.793C167.953 98.9248 162.589 98.064 155.972 101.596Z" fill="#260E0A"/>
<path d="M152.582 98.7296L156.133 97.604C156.122 99.5439 156.138 99.8506 155.333 101.602L155.972 101.596C162.589 98.064 167.953 98.9248 174.106 102.793C171.778 107.18 170.29 108.778 165.211 110.317C161.033 111.614 156.508 111.136 152.689 109.008C152.303 108.784 152.025 108.424 151.789 108.058L151.68 106.023C152.163 104.207 152.185 102.798 152.299 100.923L152.582 98.7296Z" fill="#CA7D4B"/>
<path d="M152.582 98.7296L156.133 97.604C156.122 99.5439 156.138 99.8506 155.333 101.602C153.554 103.831 154.611 105.629 151.967 107.905L151.789 108.058L151.68 106.023C152.163 104.207 152.185 102.798 152.299 100.923L152.582 98.7296Z" fill="#D2BE90"/>
<path d="M180.822 98.1583C182.626 96.4719 183.803 97.4153 185.826 98.4C187.431 100.823 191.453 112.605 190.682 115.258C187.518 113.23 184.095 114.297 180.226 114.816C180.522 114.456 181.099 113.483 181.376 113.041C181.58 109.975 182.261 100.629 180.822 98.1583Z" fill="#CA7D4B"/>
<path d="M177.394 95.0273C178.148 99.6678 176.965 103.565 174.21 107.397C171.679 110.982 167.781 113.364 163.436 113.984C157.314 114.862 153.446 112.893 150.419 107.816L151.68 106.023L151.789 108.058C152.025 108.424 152.303 108.784 152.689 109.008C156.508 111.136 161.033 111.614 165.211 110.317C170.29 108.778 171.778 107.18 174.106 102.793L174.745 101.578L173.991 99.5322L175.284 99.544C177.099 97.946 176.721 97.663 177.394 95.0273Z" fill="#A97A52"/>
<path d="M180.822 98.1583C182.261 100.629 181.58 109.975 181.376 113.041C181.099 113.483 180.522 114.456 180.226 114.816C177.458 114.503 174.022 114.538 172.412 112.28C175.858 107.51 178.026 103.324 180.822 98.1583Z" fill="#E09857"/>
<path d="M172.412 112.28C174.022 114.538 177.458 114.503 180.226 114.816C184.095 114.297 187.518 113.23 190.682 115.258C190.52 115.417 190.356 115.576 190.187 115.73C189.531 116.313 188.895 116.903 188.152 117.375C178.943 123.236 176.609 115.859 171.212 114.567C171.215 113.913 171.022 113.824 170.655 113.17L172.412 112.28Z" fill="#A05733"/>
<path d="M215.054 83.6583C218.007 85.7574 219.047 86.5652 221.539 89.1773L221.338 89.9203C218.905 89.7257 212.165 87.5853 209.495 86.8011C207.44 86.3589 206.402 85.6277 204.626 84.5722C209.818 82.9743 212.073 85.3446 215.054 83.6583Z" fill="#3B1F0F"/>
<path d="M201.601 119.662C204.324 119.42 207.818 118.742 210.471 119.284L209.7 121.761C208.474 121.024 207.227 121.083 205.841 121.053C204.712 120.222 202.958 119.986 201.601 119.662Z" fill="#B46C44"/>
<path d="M192.158 105.576C191.147 98.1699 189.967 90.6874 199.707 90.3454C211.35 89.9385 229.446 92.4622 221.14 108.353C219.263 111.944 219.895 112.274 215.945 114.497C211.996 114.88 210.088 116.136 205.814 115.671C199.128 114.939 195.294 111.213 192.158 105.576Z" fill="#C78657"/>
<path d="M195.402 104.732L198.096 102.798C201.121 107.067 205.948 107.191 210.629 108.471C215.254 109.738 215.322 109.815 215.945 114.497C211.996 114.88 210.088 116.136 205.814 115.671C199.128 114.939 195.294 111.213 192.158 105.576C193.746 105.523 193.991 105.381 195.402 104.732Z" fill="#CA7D4B"/>
<path d="M203.894 99.2016C209.261 100.758 212.823 100.605 216.815 104.709C214.216 105.493 205.455 99.5494 198.096 102.798L195.402 104.732C195.609 103.158 196.442 102.71 197.671 101.319C198.897 99.5024 201.913 99.4316 203.894 99.2016Z" fill="#260E0A"/>
<path d="M197.789 95.6109L197.911 93.8478C199.367 93.211 203.217 92.8396 204.632 93.5118L205.047 94.5436C204.129 95.7347 202.928 96.2241 201.595 96.9257C200.312 97.0673 199.026 96.2182 197.789 95.6109Z" fill="#B46C44"/>
<path d="M197.789 95.6109C199.026 96.2182 200.312 97.0673 201.595 96.9257L203.894 99.2016C201.913 99.4316 198.897 99.5024 197.671 101.319C197.197 100.475 196.733 99.6256 196.28 98.7707C197.063 97.556 197.223 97.2789 197.687 95.9168L197.789 95.6109Z" fill="#CA7D4B"/>
<path d="M172.173 70.0553C172.886 68.1036 173.298 65.4383 174.863 64.4301L176.158 64.9961C178.03 71.9008 182.887 75.3385 190.757 74.1887C192.08 73.9941 192.861 72.9504 193.519 71.8772C193.038 69.7427 192.777 70.014 191.098 68.1625C194.791 66.4703 202.272 71.0694 207.887 71.152C211.662 71.2051 212.946 71.1815 216.959 70.7805C219.564 74.9434 220.699 76.9659 225.054 79.5426C226.897 80.1735 228.884 80.5804 229.715 82.5262C228.414 87.2905 228.345 88.3047 230.916 92.8095C231.205 93.3166 231.5 93.8178 231.803 94.3131C231.116 97.0963 231.707 96.483 229.723 97.6918C226.292 97.5621 225.643 96.2413 225.285 92.9216C224.203 90.9817 223.35 90.5099 221.539 89.1773C219.047 86.5652 218.007 85.7574 215.054 83.6583C212.073 85.3446 209.818 82.9743 204.626 84.5722C206.402 85.6277 207.44 86.3589 209.495 86.8011C204.633 86.748 200.122 86.294 195.537 87.7622L194.448 89.5429L194.152 89.1891C191.339 85.9048 185.094 87.3966 180.895 87.8683C179.992 90.3979 180.47 91.5831 178.364 92.8803C176.483 85.0852 161.267 87.2905 155.35 88.4698C150.785 89.7788 152.715 94.4311 152.582 98.7296L152.299 100.923C152.023 97.4441 152.443 91.076 151.575 88.175L154.249 86.6419L153.071 84.9083C153.784 83.3222 153.967 81.1111 154.207 79.348C156.066 77.3727 157.196 76.0578 159.44 74.4835C162.1 71.3938 162.593 71.6945 166.631 71.1638C168.874 69.8961 168.992 68.9762 169.404 66.7061C170.286 67.8441 171.153 69.047 172.173 70.0553Z" fill="#CA7D4B"/>
<path d="M197.438 81.7839C198.94 82.5445 200.646 83.4643 202.166 84.1306L204.626 84.5722C206.402 85.6277 207.44 86.3589 209.495 86.8011C204.633 86.748 200.122 86.294 195.537 87.7622L194.448 89.5429L194.152 89.1891C191.339 85.9048 185.094 87.3966 180.895 87.8683C179.992 90.3979 180.47 91.5831 178.364 92.8803C176.483 85.0852 161.267 87.2905 155.35 88.4698C150.785 89.7788 152.715 94.4311 152.582 98.7296L152.299 100.923C152.023 97.4441 152.443 91.076 151.575 88.175L154.249 86.6419C156.075 85.8164 156.316 85.3806 157.506 83.7237C160.053 83.8299 161.31 83.6412 163.784 83.311C167.147 82.6034 172.115 81.1942 175.211 82.4207L175.779 83.482C180.949 83.8181 189.052 84.0775 193.958 84.6967C195.421 84.4903 195.83 84.4903 197.106 83.6294L197.438 81.7839Z" fill="#885835"/>
<path d="M163.784 83.311C167.147 82.6034 172.115 81.1942 175.211 82.4207L175.779 83.482C174.592 86.1767 166.718 83.5587 163.784 83.311Z" fill="#785644"/>
<path d="M197.438 81.7839C198.94 82.5445 200.646 83.4643 202.166 84.1306C200.018 85.534 196.403 85.0799 193.958 84.6967C195.421 84.4903 195.83 84.4903 197.106 83.6294L197.438 81.7839Z" fill="#B46C44"/>
<path d="M225.054 79.5426C226.897 80.1735 228.884 80.5804 229.715 82.5262C228.414 87.2905 228.345 88.3047 230.916 92.8095C231.205 93.3166 231.5 93.8178 231.803 94.3131C231.116 97.0963 231.707 96.483 229.723 97.6918C226.292 97.5621 225.643 96.2413 225.285 92.9216C224.391 88.1337 224.755 84.3187 225.054 79.5426Z" fill="#A05733"/>
<path d="M157.506 83.7237C160.643 79.4429 170.707 75.2208 174.969 78.7528C175.747 80.8814 175.615 80.0444 175.211 82.4207C172.115 81.1942 167.147 82.6034 163.784 83.311C161.31 83.6412 160.053 83.8299 157.506 83.7237Z" fill="#260E0A"/>
<path d="M197.438 81.7839C200.341 74.8379 211.092 80.3209 215.054 83.6583C212.073 85.3446 209.818 82.9743 204.626 84.5722L202.166 84.1306C200.646 83.4643 198.94 82.5445 197.438 81.7839Z" fill="#260E0A"/>
<path d="M169.404 66.7061C170.286 67.8441 171.153 69.047 172.173 70.0553C168.618 75.4033 165.362 74.5837 159.44 74.4835C162.1 71.3938 162.593 71.6945 166.631 71.1638C168.874 69.8961 168.992 68.9762 169.404 66.7061Z" fill="#A05733"/>
<path d="M138.754 48.6806C139.763 42.9788 143.85 29.3463 152.211 35.6083C152.616 35.7616 153.454 36.1213 153.832 36.1626L153.243 37.1594C153.081 37.5486 152.889 38.0144 152.665 38.5569C147.388 41.3754 146.132 41.4402 142.584 46.2517L142.28 50.2849L142.796 50.6268L142.62 50.7684C135.993 56.2462 140.091 62.1485 138.067 68.2866L136.969 69.5485C137.515 72.0545 138.597 72.9031 136.524 74.9551C126.905 69.6247 133.463 69.0056 133.369 64.0703C133.227 56.6644 133.242 54.2763 138.754 48.6806Z" fill="#170B06"/>
<path d="M152.211 35.6083C152.616 35.7616 153.454 36.1213 153.832 36.1626L153.243 37.1594C153.081 37.5486 152.889 38.0144 152.665 38.5569C147.388 41.3754 146.132 41.4402 142.584 46.2517C143.254 38.4685 145.54 37.2651 152.211 35.6083Z" fill="#665234"/>
<path d="M142.28 50.2849L142.796 50.6268L142.62 50.7684C135.993 56.2462 140.091 62.1485 138.067 68.2866C135.955 63.1627 136.067 61.7945 136.345 56.3108C138.04 53.3567 138.933 51.417 142.28 50.2849Z" fill="#7F7252"/>
<path d="M191.098 68.1625L190.391 67.3963C190.993 65.4505 193.114 64.1592 194.796 62.9917C197.56 61.0695 200.332 64.2005 202.216 65.6864C207.103 69.5426 213.436 67.0897 218.48 65.0023C220.558 73.5463 224.346 74.2892 231.641 77.9922C231.251 79.0241 230.299 81.801 229.715 82.5262C228.884 80.5804 226.897 80.1735 225.054 79.5426C220.699 76.9659 219.564 74.9434 216.959 70.7805C212.946 71.1815 211.662 71.2051 207.887 71.152C202.272 71.0694 194.791 66.4703 191.098 68.1625Z" fill="#914D35"/>
<path d="M153.071 84.9083L154.249 86.6419L151.575 88.175C152.443 91.076 152.023 97.4441 152.299 100.923C152.185 102.798 152.163 104.207 151.68 106.023L150.419 107.816L149.407 108.547C149.166 109.237 149.067 109.691 148.592 110.257C147.908 109.667 147.247 109.048 146.61 108.406C144.175 105.929 144.387 104.473 144.409 101.059C144.27 97.9688 144.37 94.1128 144.361 90.9582C147.255 88.4935 149.86 86.9308 153.071 84.9083Z" fill="#170B06"/>
<path d="M153.071 84.9083L154.249 86.6419L151.575 88.175C145.31 91.3177 145.161 100.852 148.02 106.248C148.446 107.038 148.909 107.804 149.407 108.547C149.166 109.237 149.067 109.691 148.592 110.257C147.908 109.667 147.247 109.048 146.61 108.406C144.175 105.929 144.387 104.473 144.409 101.059C144.27 97.9688 144.37 94.1128 144.361 90.9582C147.255 88.4935 149.86 86.9308 153.071 84.9083Z" fill="#A97A52"/>
<path d="M153.832 36.1626C155.513 24.9711 163.004 17.3706 174.703 20.0004L173.882 21.941C171.276 25.1486 163.885 22.849 160.666 29.1405C160.596 32.8493 161.052 34.0109 158.734 36.5994C157.17 37.2481 154.847 37.7962 153.243 37.1594L153.832 36.1626Z" fill="#170B06"/>
<path d="M160.666 29.1405C160.025 30.1134 159.376 30.9389 158.666 31.8528L157.993 31.6818C157.324 25.7264 168.493 19.9598 173.882 21.941C171.276 25.1486 163.885 22.849 160.666 29.1405Z" fill="#7F7252"/>
<path d="M137.513 75.5212L138.914 76.3002L140.806 75.0678C143.705 77.963 142.094 81.3887 140.994 84.8264C139.489 86.2179 139.396 85.946 139.159 87.6501C136.316 84.637 136.395 79.2241 137.513 75.5212Z" fill="#4D4034"/>
<path d="M154.207 79.348C154.087 68.0505 157.671 70.0317 166.631 71.1638C162.593 71.6945 162.1 71.3938 159.44 74.4835C157.196 76.0578 156.066 77.3727 154.207 79.348Z" fill="#785644"/>
<path d="M169.404 66.7061C168.522 63.6989 172.577 61.2345 175.349 61.2581C176.652 62.7558 176.234 62.437 176.158 64.9961L174.863 64.4301C173.298 65.4383 172.886 68.1036 172.173 70.0553C171.153 69.047 170.286 67.8441 169.404 66.7061Z" fill="#B46C44"/>
<path d="M179.235 24.2517C180.651 20.8141 181.378 19.4226 184.371 17.2292L185.736 19.1692C183.698 21.345 182.458 22.5066 181.736 25.5314L179.235 24.2517Z" fill="#170B06"/>
<path d="M185.736 19.1692C186.935 18.5088 187.797 17.8549 189.152 18.1025C188.726 19.5943 183.907 24.2525 182.552 25.6735L181.736 25.5314C182.458 22.5066 183.698 21.345 185.736 19.1692Z" fill="#7F7252"/>
<path d="M253.735 47.9672C254.656 47.9967 255.507 48.0792 256.405 47.8905C255.813 49.6772 255.246 55.267 254.999 57.3367C254.379 53.8873 254.019 51.4579 253.735 47.9672Z" fill="#DCD6D5"/>
<path d="M190.921 47.3598C192.367 47.4483 193.012 47.2478 194.107 48.2443C188.95 51.281 182.551 53.5098 180.085 59.4769C180.229 60.1137 180.063 60.6385 179.914 61.2577L179.166 60.9806C179.123 60.8803 179.078 60.7801 179.036 60.6798C178.385 59.0937 178.692 57.6314 179.362 56.0983C181.426 51.3753 186.444 49.1465 190.921 47.3598Z" fill="#2F2A26"/>
<path d="M180.499 32.5129C183.009 32.3537 186.761 31.9232 188.981 33.1556C185.608 35.0071 181.539 34.4528 178.102 36.4104C178.046 36.4399 177.992 36.4753 177.937 36.5048C177.12 38.0968 176.362 39.6535 175.174 41.0097L174.358 40.9448C174.184 40.4023 174.148 39.9483 174.297 39.3882C175.302 35.6321 177.331 34.3054 180.499 32.5129Z" fill="#2F2A26"/>
<path d="M163.387 46.1399C163.422 46.1694 163.467 46.1871 163.491 46.2284C164.043 47.1187 163.745 47.0892 163.116 47.7673C159.528 51.6118 157.207 54.4362 155.9 59.6604C155.269 57.9033 154.507 55.9398 154.919 54.0588C155.79 50.0906 160.225 48.0622 163.387 46.1399Z" fill="#4D4034"/>
<path d="M225.648 108.641C227.667 110.917 225.665 117.286 225.486 120.582C224.52 138.401 206.09 158.142 189.075 161.981C186.763 159.947 186.785 159.286 183.871 161.026C183.79 160.648 183.367 160.171 183.149 159.841C182.02 160.047 174.692 159.935 173.885 159.493C171.606 158.243 171.24 156.226 168.208 156.085L168.621 157.8L167.79 158.125L165.446 156.651C163.586 153.744 160.978 151.173 158.964 148.325C155.973 145.147 154.103 141.002 152.303 137.086C150.08 130.736 148.189 123.595 149.181 116.82L149.126 112.586L149.796 111.937C151.661 112.38 153.858 113.907 155.683 114.785C159.801 116.767 166.728 115.157 170.655 113.17C171.022 113.824 171.215 113.913 171.212 114.567C172.259 117.356 173.835 119.62 176.633 120.865C179.507 122.15 183.44 121.737 186.302 120.611C187.627 120.092 188.91 119.42 190.174 118.765C191.091 117.038 192.147 115.287 192.785 113.435C195.551 115.87 198.449 117.763 201.601 119.662C202.958 119.986 204.712 120.222 205.841 121.053C207.227 121.083 208.474 121.024 209.7 121.761L210.471 119.284C218.378 119.497 222.993 115.935 225.648 108.641Z" fill="#CA7D4B"/>
<path d="M163.351 129.273C163.299 129.179 163.245 129.085 163.195 128.99C162.315 127.286 161.865 124.344 162.557 122.546C162.843 121.803 162.985 121.638 163.627 121.201C164.81 120.393 176.058 123.636 178.337 123.92C186.501 124.922 198.303 124.503 205.841 121.053C207.227 121.083 208.474 121.024 209.7 121.761C211.368 124.538 212.652 127.168 211.775 130.559C211.694 130.871 211.649 130.907 211.499 131.149C211.004 129.268 210.611 126.142 209.215 124.769C207.667 126.089 207.009 130.972 206.219 133.094C202.54 142.977 193.662 149.469 182.933 148.631C178.561 148.284 174.687 146.497 171.841 143.106C169.212 139.975 168.057 136.267 167.284 132.322L166.541 129.916C165.258 128.861 164.955 129.132 163.351 129.273Z" fill="#260E0A"/>
<path d="M163.351 129.273C163.867 127.027 163.82 124.762 165.408 123.005L166.142 123.33C166.946 126.325 167.198 129.232 167.284 132.322L166.541 129.916C165.258 128.861 164.955 129.132 163.351 129.273Z" fill="#B46C44"/>
<path d="M169.202 129.291C180.622 134.391 191.82 132.87 203.603 130.299L204.32 130.983C204.068 132.787 202.719 134.09 201.578 135.429C197.501 136.856 194.203 135.004 190.289 135.452C184.988 136.054 179.815 138.578 174.817 140.27C173.264 140.795 172.451 140.541 171.061 139.857C169.253 137.386 169.078 132.31 169.202 129.291Z" fill="#4A1712"/>
<path d="M202.121 123.56C203.308 123.271 204.25 123.123 205.473 123.247C205.969 123.3 206.142 123.725 206.445 124.102C205.987 125.588 205.452 126.119 204.127 126.962C196.014 132.116 182.338 131.449 173.473 129.185C172.588 128.696 171.609 128.189 170.887 127.481C169.863 126.473 169.381 126.06 169.404 124.639C171.447 123.743 179.004 126.025 182.048 126.066C188.819 126.148 195.494 124.792 202.121 123.56Z" fill="#DCD6D5"/>
<path d="M186.207 138.331C191.235 137.741 196.659 138.224 201.671 138.767C198.226 142.676 195.173 145.005 190.13 146.503C186.853 146.816 182.797 147.252 179.65 146.102C177.856 145.442 176.945 144.74 176.165 143.054L176.708 141.668C179.31 139.298 182.858 138.861 186.207 138.331Z" fill="#B6564D"/>
<path d="M149.181 116.82C150.554 117.758 151.037 118.123 151.402 119.815C152.438 124.603 152.696 129.562 153.842 134.356C155.583 137.97 159.048 143.218 159.457 147.157L158.964 148.325C155.973 145.147 154.103 141.002 152.303 137.086C150.08 130.736 148.189 123.595 149.181 116.82Z" fill="#E09857"/>
<path d="M173.05 151.185C173.946 151.114 189.3 152.358 190.071 152.541L190.138 153.378C188.843 153.785 187.482 154.115 186.131 154.274C181.3 154.846 176.982 154.257 173.05 151.185Z" fill="#4A1712"/>
<path d="M225.648 108.641C226.279 106.324 225.866 106.265 227.412 105.192C229.968 106.023 230.944 107.592 231.285 110.233L231.78 108.081C234.676 106.454 235.042 109.738 239.278 108.535C240.527 110.08 240.699 110.292 242.596 110.823C238.955 114.697 236.891 117.156 234.151 121.749C233.07 127.799 230.43 130.069 230.641 137.145L229.7 134.781C227.499 135.718 224.985 143.159 223.23 145.394C215.422 155.353 198.936 164.092 186.281 164.746C184.61 163.732 184.339 162.818 183.871 161.026C186.785 159.286 186.763 159.947 189.075 161.981C206.09 158.142 224.52 138.401 225.486 120.582C225.665 117.286 227.667 110.917 225.648 108.641Z" fill="#844633"/>
<path d="M231.285 110.233L231.78 108.081C234.676 106.454 235.042 109.738 239.278 108.535C240.527 110.08 240.699 110.292 242.596 110.823C238.955 114.697 236.891 117.156 234.151 121.749C231.411 121.048 231.598 121.561 230.101 119.751C229.512 117.392 230.794 113.123 231.285 110.233Z" fill="#260E0A"/>
<path d="M242.596 110.823C253.971 106.029 252.567 116.448 253.307 122.958C251.229 128.778 247.55 134.032 241.789 136.726C238.276 138.342 234.265 138.495 230.641 137.145C230.43 130.069 233.07 127.799 234.151 121.749C236.891 117.156 238.955 114.697 242.596 110.823Z" fill="#914D35"/>
<path d="M245.934 114.527C247.1 114.509 247.721 114.527 248.714 115.222C249.182 115.553 249.388 116.626 249.474 117.198C249.891 119.939 249.564 123.07 247.838 125.305C247.913 122.835 248.564 119.391 247.459 117.139C246.593 116.614 246.433 116.378 245.39 116.608C243.668 116.991 241.77 118.436 240.867 119.94C239.82 121.685 240.868 124.421 241.349 126.243C241.335 126.691 241.299 127.127 241.178 127.564C240.699 129.274 238.744 130.895 237.231 131.667C236.033 132.281 235.512 132.593 234.221 132.175C242.439 124.999 237.597 128.018 238.24 120.494C239.524 117.339 243.037 115.871 245.934 114.527Z" fill="#260E0A"/>
<path d="M165.446 156.651L167.79 158.125L168.621 157.8L168.208 156.085C171.24 156.226 171.606 158.243 173.885 159.493C174.692 159.935 182.02 160.047 183.149 159.841C183.367 160.171 183.79 160.648 183.871 161.026C184.339 162.818 184.61 163.732 186.281 164.746C185.126 164.77 183.957 164.781 182.804 164.693C175.915 164.168 170.014 161.94 165.446 156.651Z" fill="#754129"/>
<path d="M216.642 173.302C219.998 168.939 221.285 165.112 221.727 159.64C221.858 158.024 221.808 156.309 222.35 154.764C225.281 156.291 229.725 165.973 232.356 169.251C232.518 176.639 231.668 184.729 229.237 191.775C228.404 195.042 224.212 208.303 225.843 210.921C225.906 211.021 225.982 211.116 226.051 211.21C228.457 206.617 229.564 200.532 230.97 195.502C231.313 190.59 233.449 174.906 235.533 171.061C242.531 168.42 265.178 166.999 272.087 169.54C275.414 170.731 284.963 173.349 286.392 176.557C286.421 176.622 286.442 176.687 286.467 176.751C286.171 177.335 285.947 177.901 285.403 178.296L286.685 179.098C292.127 175.932 298.937 174.092 305.192 175.82C307.472 176.451 308.539 177.282 309.863 179.222C309.867 180.024 309.9 180.737 309.633 181.504C303.786 195.119 303.832 209.423 309.275 223.186C310.987 227.514 313.551 231.441 315.346 235.733C314.521 236.883 312.907 236.889 311.514 237.072C311.443 237.084 311.373 237.084 311.302 237.09C300.605 239.029 290.184 239.177 279.349 238.929C276.332 238.941 272.097 238.499 269.343 239.708C269.204 239.766 269.061 239.82 268.926 239.884C265.285 241.718 252.43 290.346 250.847 296.331C248.174 306.443 249.611 310.889 249.738 320.707C249.795 325.212 249.29 329.71 249.352 334.209C249.429 339.799 250.474 346.002 251.47 351.515C252.23 355.725 256.252 365.101 255.667 368.686L253.402 369.258C247.921 369.989 232.297 380.06 226.369 383.185C217.687 387.767 179.954 405.515 171.84 400.715C171.433 400.179 170.927 399.613 170.601 399.023C165.998 386.051 156.53 374.736 154.506 360.755C150.587 333.667 157.495 243.806 167.68 219.318C168.548 217.23 169.915 215.402 171.259 213.604C172.529 212.112 173.348 210.455 175.023 209.323C181.386 202.855 188.361 196.54 195.49 190.915C202.752 185.189 210.388 180.213 216.642 173.302Z" fill="#85B4D5"/>
<path d="M272.087 169.54C275.414 170.731 284.963 173.349 286.392 176.557C286.421 176.622 286.442 176.687 286.467 176.751C286.171 177.335 285.947 177.901 285.403 178.296L286.685 179.098C292.127 175.932 298.937 174.092 305.192 175.82C307.472 176.451 308.539 177.282 309.863 179.222C309.867 180.024 309.9 180.737 309.633 181.504C303.786 195.119 303.832 209.423 309.275 223.186C310.987 227.514 313.551 231.441 315.346 235.733C314.521 236.883 312.907 236.889 311.514 237.072C311.443 237.084 311.373 237.084 311.302 237.09C300.605 239.029 290.184 239.177 279.349 238.929C276.332 238.941 272.097 238.499 269.343 239.708C269.204 239.766 269.061 239.82 268.926 239.884C265.285 241.718 252.43 290.346 250.847 296.331C248.174 306.443 249.611 310.889 249.738 320.707C249.795 325.212 249.29 329.71 249.352 334.209C249.429 339.799 250.474 346.002 251.47 351.515C252.23 355.725 256.252 365.101 255.667 368.686L253.402 369.258C247.921 369.989 232.297 380.06 226.369 383.185C217.687 387.767 179.954 405.515 171.84 400.715C171.433 400.179 170.927 399.613 170.601 399.023C172.175 398.386 174.171 398.522 175.872 398.121C180.538 397.024 185.21 395.633 189.766 394.147C200.697 390.579 210.958 384.017 220.952 378.409C225.628 376.151 230.344 374.093 233.126 369.417C238.424 360.525 232.575 349.517 230.211 340.678C231.43 336.379 232.533 332.051 233.52 327.694C230.91 331.008 228.436 333.431 225.038 335.949C221.626 338.473 214.051 344.139 209.548 343.467C215.38 338.691 227.063 322.924 230.941 316.043C232.401 313.454 233.407 310.494 234.188 307.634C234.744 305.606 235.924 301.526 234.829 299.621L233.326 300.901C230.485 302.221 229.463 304.539 227.102 306.408L226.146 305.96C224.229 302.428 229.006 299.568 229.508 295.895C229.525 295.771 229.537 295.641 229.552 295.511C230.638 292.038 235.257 286.419 237.213 282.822C239.896 277.887 247.213 265.021 245.662 259.785C244.524 260.888 243.3 261.772 241.997 262.674L241.491 262.474L242.528 260.351C243.575 251.335 252.11 241.105 249.807 231.895C252.612 226.635 253.748 218.274 255.244 212.372C258.171 200.243 258.09 192.023 263.771 180.107L266.363 175.301C266.792 174.558 267.223 173.809 267.691 173.09C268.691 171.557 269.227 171.097 270.977 170.731L272.087 169.54Z" fill="#53719D"/>
<path d="M272.087 169.54C275.414 170.731 284.963 173.349 286.392 176.557C286.421 176.622 286.442 176.687 286.467 176.751C286.171 177.335 285.947 177.901 285.403 178.296L286.685 179.098C292.127 175.932 298.937 174.092 305.192 175.82C307.472 176.451 308.539 177.282 309.863 179.222C309.867 180.024 309.9 180.737 309.633 181.504L308.033 181.097C305.483 182.53 304.396 186.51 303.634 189.24C302.569 193.061 301.856 197.077 301.395 201.015C300.822 202.843 300.93 203.751 299.22 204.701C297.86 204.488 296.049 203.975 294.881 204.824C294.386 205.184 293.81 205.491 293.55 206.069C291.275 207.519 289.014 208.911 287.006 210.733C287.322 211.818 287.739 212.437 287.162 213.51C286.541 214.66 285.032 215.521 283.964 216.258C280.993 219.058 276.582 224.224 272.421 224.766L270.101 223.964C268.504 225.096 266.826 226.181 265.385 227.508C263.878 229.076 262.345 230.609 260.788 232.125L259.901 231.895L260.12 232.844L259.66 233.428C255.225 231.759 257.366 216.541 255.244 212.372C258.171 200.243 258.09 192.023 263.771 180.107L266.363 175.301C266.792 174.558 267.223 173.809 267.691 173.09C268.691 171.557 269.227 171.097 270.977 170.731L272.087 169.54Z" fill="#93BDD8"/>
<path d="M272.087 169.54C275.414 170.731 284.963 173.349 286.392 176.557C286.421 176.622 286.442 176.687 286.467 176.751C286.171 177.335 285.947 177.901 285.403 178.296C280.359 181.881 273.107 186.168 269.772 191.469C269.471 191.947 269.178 192.418 268.908 192.914L268.874 192.501C268.807 191.599 268.602 190.685 268.646 189.777C268.853 185.449 275.513 180.785 278.584 178.167C274.869 178.273 270.223 178.786 266.757 177.377L264.845 180.614L263.771 180.107L266.363 175.301C266.792 174.558 267.223 173.809 267.691 173.09C268.691 171.557 269.227 171.097 270.977 170.731L272.087 169.54Z" fill="#53719D"/>
<path d="M266.363 175.301C266.792 174.558 267.223 173.809 267.691 173.09C268.691 171.557 269.227 171.097 270.977 170.731C269.464 172.86 267.786 174.965 266.757 177.377L264.845 180.614L263.771 180.107L266.363 175.301Z" fill="#253B5D"/>
<path d="M258.697 217.862L259.403 219.088C262.799 218.899 274.641 206.086 278.424 203.221C276.099 207.201 264.2 223.298 265.023 226.771C265.089 227.054 265.21 227.284 265.385 227.508C263.878 229.076 262.345 230.609 260.788 232.125L259.901 231.895C259.088 227.366 257.584 222.467 258.697 217.862Z" fill="#688FB7"/>
<path d="M286.685 179.098C292.127 175.932 298.937 174.092 305.192 175.82C307.472 176.451 308.539 177.282 309.863 179.222C309.867 180.024 309.9 180.737 309.633 181.504L308.033 181.097C300.607 178.42 291.313 183.231 285.165 180.413L286.685 179.098Z" fill="#D2BE90"/>
<path d="M255.244 212.372C258.171 200.243 258.09 192.023 263.771 180.107L264.845 180.614C260.478 189.588 258.183 197.672 258.404 207.719C258.478 211.074 258.999 214.518 258.697 217.862C257.584 222.467 259.088 227.366 259.901 231.895L260.12 232.844L259.66 233.428C255.225 231.759 257.366 216.541 255.244 212.372Z" fill="#315173"/>
<path d="M270.101 223.964C275.563 219.424 280.939 214.447 287.006 210.733C287.322 211.818 287.739 212.437 287.162 213.51C286.541 214.66 285.032 215.521 283.964 216.258C280.993 219.058 276.582 224.224 272.421 224.766L270.101 223.964Z" fill="#5F80A6"/>
<path d="M268.908 192.914C269.178 192.418 269.471 191.947 269.772 191.469C273.107 186.168 280.359 181.881 285.403 178.296L286.685 179.098L285.165 180.413C279.323 184.522 274.113 189.004 268.854 193.827L268.234 193.697L268.908 192.914Z" fill="#253B5D"/>
<path d="M255.244 212.372C257.366 216.541 255.225 231.759 259.66 233.428L260.12 232.844L259.901 231.895L260.788 232.125C262.345 230.609 263.878 229.076 265.385 227.508C266.826 226.181 268.504 225.096 270.101 223.964L272.421 224.766C276.582 224.224 280.993 219.058 283.964 216.258L285.43 217.407C282.29 220.084 277.949 223.02 275.782 226.558C275.82 227.107 275.81 227.602 276.025 228.115C271.04 233.044 261.513 235.232 258.991 242.467C258.422 243.157 257.863 243.953 257.168 244.519C253.847 250.197 249.294 254.46 245.662 259.785C244.524 260.888 243.3 261.772 241.997 262.674L241.491 262.474L242.528 260.351C243.575 251.335 252.11 241.105 249.807 231.895C252.612 226.635 253.748 218.274 255.244 212.372Z" fill="#496795"/>
<path d="M242.528 260.351C247.249 256.689 252.525 245.952 257.168 244.519C253.847 250.197 249.294 254.46 245.662 259.785C244.524 260.888 243.3 261.772 241.997 262.674L241.491 262.474L242.528 260.351Z" fill="#253B5D"/>
<path d="M293.55 206.069C293.81 205.491 294.386 205.184 294.881 204.824C296.049 203.975 297.86 204.488 299.22 204.701C300.93 203.751 300.822 202.843 301.395 201.015C301.384 207.448 301.346 213.863 302.321 220.243C297.631 221.069 283.992 222.466 280.628 225.709C279.094 226.488 277.483 227.213 276.025 228.115C275.81 227.602 275.82 227.107 275.782 226.558C277.949 223.02 282.29 220.084 285.43 217.407L283.964 216.258C285.032 215.521 286.541 214.66 287.162 213.51C287.739 212.437 287.322 211.818 287.006 210.733C289.014 208.911 291.275 207.519 293.55 206.069Z" fill="#86ABCA"/>
<path d="M293.55 206.069C293.691 208.881 292.809 210.532 290.937 212.602C289.372 214.33 287.329 216.057 285.43 217.407L283.964 216.258C285.032 215.521 286.541 214.66 287.162 213.51C287.739 212.437 287.322 211.818 287.006 210.733C289.014 208.911 291.275 207.519 293.55 206.069Z" fill="#5079A2"/>
<path d="M279.349 238.929L279.575 238.068C280.593 237.119 282.769 237.119 284.112 236.954C289.024 236.352 307.828 234.389 311.302 237.09C300.605 239.029 290.184 239.177 279.349 238.929Z" fill="#818391"/>
<path d="M280.628 225.709L280.8 226.847C276.787 229.737 272.489 232.195 268.485 235.096C265.481 237.272 262.22 240.934 258.991 242.467C261.513 235.232 271.04 233.044 276.025 228.115C277.483 227.213 279.094 226.488 280.628 225.709Z" fill="#253B5D"/>
<path d="M216.642 173.302C219.998 168.939 221.285 165.112 221.727 159.64C221.858 158.024 221.808 156.309 222.35 154.764C225.281 156.291 229.725 165.973 232.356 169.251C232.518 176.639 231.668 184.729 229.237 191.775C228.404 195.042 224.212 208.303 225.843 210.921C225.906 211.021 225.982 211.116 226.051 211.21C225.239 211.505 224.339 211.747 223.476 211.823C222.047 211.959 220.847 211.399 219.786 210.491C217.026 208.651 214.269 206.747 211.409 205.06C199.471 198.043 191.141 207.478 179.603 210.42C176.808 212.277 174.726 213.474 171.259 213.604C172.529 212.112 173.348 210.455 175.023 209.323C181.386 202.855 188.361 196.54 195.49 190.915C202.752 185.189 210.388 180.213 216.642 173.302Z" fill="#93BDD8"/>
<path d="M216.642 173.302C219.998 168.939 221.285 165.112 221.727 159.64C221.858 158.024 221.808 156.309 222.35 154.764C225.281 156.291 229.725 165.973 232.356 169.251C232.518 176.639 231.668 184.729 229.237 191.775C225.359 187.052 226.356 181.044 221.405 176.527C221.398 176.48 221.399 176.433 221.383 176.392C220.671 174.363 218.495 174.263 216.642 173.302Z" fill="#53719D"/>
<path d="M179.603 210.42C186.476 202.825 196.536 197.064 204.953 191.245C209.865 197.613 216.583 202.418 221.669 208.627C220.932 209.187 220.227 209.648 219.786 210.491C217.026 208.651 214.269 206.747 211.409 205.06C199.471 198.043 191.141 207.478 179.603 210.42Z" fill="#53719D"/>
<path d="M221.405 176.527C226.356 181.044 225.359 187.052 229.237 191.775C228.404 195.042 224.212 208.303 225.843 210.921C225.906 211.021 225.982 211.116 226.051 211.21C225.239 211.505 224.339 211.747 223.476 211.823C222.047 211.959 220.847 211.399 219.786 210.491C220.227 209.648 220.932 209.187 221.669 208.627L223.023 209.305L223.794 209.046C223.384 207.053 221.411 205.172 220.144 203.615C224.933 196.41 221.847 184.57 221.405 176.527Z" fill="#86ABCA"/>
<path d="M175.023 209.323C175.279 209.471 175.402 209.559 175.705 209.654C175.898 209.713 176.611 209.807 176.801 209.754C178.916 209.164 198.96 192.813 204.767 189.783C210.694 193.733 215.311 198.45 220.144 203.615C221.411 205.172 223.384 207.053 223.794 209.046L223.023 209.305L221.669 208.627C216.583 202.418 209.865 197.613 204.953 191.245C196.536 197.064 186.476 202.825 179.603 210.42C176.808 212.277 174.726 213.474 171.259 213.604C172.529 212.112 173.348 210.455 175.023 209.323Z" fill="#161A22"/>
<path d="M230.97 195.502C231.313 190.59 233.449 174.906 235.533 171.061C242.531 168.42 265.178 166.999 272.087 169.54L270.977 170.731C269.227 171.097 268.691 171.557 267.691 173.09C267.223 173.809 266.792 174.558 266.363 175.301C261.077 173.397 246.27 178.879 240.7 180.295C237.927 185.112 235.028 191.776 230.97 195.502Z" fill="#53719D"/>
<path d="M209.548 343.467C214.051 344.139 221.626 338.473 225.038 335.949C228.436 333.431 230.91 331.008 233.52 327.694C232.533 332.051 231.43 336.379 230.211 340.678C232.575 349.517 238.424 360.525 233.126 369.417C230.344 374.093 225.628 376.151 220.952 378.409C222.103 376.858 224.318 376.198 225.352 374.83C227.566 371.894 227.652 361.363 228.911 357.447C229.336 356.127 229.489 355.531 230.733 354.9L232.707 356.097L233.75 355.82C233.25 350.23 229.991 345.843 229.606 340.018C217.87 346.067 206.233 351.085 193.849 355.661C198.89 351.527 204.033 346.934 209.548 343.467Z" fill="#688EB4"/>
<path d="M228.636 295.652C228.621 295.523 228.603 295.399 228.589 295.269C228.242 291.967 231.028 284.261 233.104 281.802L233.471 282.415C232.222 285.287 231.153 288.247 230.038 291.171L230.282 291.602C234.929 285.481 242.913 271.336 243.732 263.67C242.8 263.617 241.877 264.012 240.998 264.289C239.708 263.57 239.273 263.057 238.821 261.624C236.245 253.464 245.958 239.089 249.807 231.895C252.11 241.105 243.575 251.335 242.528 260.351L241.491 262.474L241.997 262.674C243.3 261.772 244.524 260.888 245.662 259.785C247.213 265.021 239.896 277.887 237.213 282.822C235.257 286.419 230.638 292.038 229.552 295.511L228.636 295.652Z" fill="#688EB4"/>
<path d="M228.636 295.652L229.552 295.511C229.537 295.641 229.525 295.771 229.508 295.895C229.006 299.568 224.229 302.428 226.146 305.96L227.102 306.408C229.463 304.539 230.485 302.221 233.326 300.901C229.028 308.89 218.948 316.49 210.452 319.297C216.51 311.673 224.668 304.644 228.636 295.652Z" fill="#5D89B4"/>
<path d="M155.314 338.525C160.611 339.351 171.423 349.817 176.845 353.036C183.52 356.922 190.566 360.136 197.877 362.624C186.781 364.134 174.637 359.658 165.751 353.202C161.143 349.852 156.224 344.327 155.314 338.525Z" fill="#53719D"/>
<path d="M188.45 266.288C187.157 254.395 187.347 237.921 192.244 226.918C190.371 239.737 188.5 253.074 189.41 266.058C194.354 270.84 200.107 274.437 205.285 278.895L203.784 279.125C198.454 275.08 192.805 271.442 188.45 266.288Z" fill="#315173"/>
<path d="M195.49 226.228C201.564 226.765 207.658 227.366 213.746 227.684C218.524 227.938 231.786 227.401 235.311 228.539C235.536 228.61 235.981 229.07 236.189 229.235C225.831 230.373 206.385 230.373 196.496 227.443C195.855 227.254 195.796 226.794 195.49 226.228Z" fill="#253B5D"/>
<path d="M230.831 271.123C233.568 262.173 235.675 234.2 239.158 228.817C238.77 235.45 235.458 266.878 231.351 270.752C231.156 270.935 231.074 270.97 230.831 271.123Z" fill="#253B5D"/>
<path d="M194.514 237.461C200.333 237.867 226.919 238.233 229.485 239.996C229.228 240.026 228.97 240.049 228.712 240.073C222.931 240.55 198.244 240.621 194.514 237.461Z" fill="#516B87"/>
<path d="M161.455 354.434C162.011 354.894 162.672 355.401 163.087 355.996C163.859 357.105 164.251 358.502 163.878 359.817C163.403 361.492 161.718 362.358 160.327 363.172C159.733 362.736 159.057 362.282 158.561 361.733C157.497 360.566 157.501 359.723 157.538 358.237C158.38 356.444 159.89 355.53 161.455 354.434Z" fill="#253B5D"/>
<path d="M169.886 223.339C170.997 222.761 172.34 222.843 173.368 223.563C174.396 224.282 174.937 225.514 174.77 226.758C174.605 228.003 173.76 229.052 172.579 229.477C170.919 230.072 169.079 229.282 168.37 227.666C167.66 226.051 168.323 224.158 169.886 223.339Z" fill="#253B5D"/>
<path d="M161.87 288.913C163.554 288.636 165.175 289.685 165.604 291.342C166.033 292.993 165.13 294.703 163.521 295.275C162.345 295.699 161.033 295.416 160.131 294.556C159.229 293.689 158.892 292.392 159.26 291.195C159.628 290.004 160.638 289.119 161.87 288.913Z" fill="#1C3541"/>
<path d="M164.642 255.881C166.289 255.25 168.14 256.04 168.832 257.662C169.523 259.283 168.808 261.164 167.213 261.913C166.127 262.426 164.847 262.302 163.878 261.595C162.91 260.887 162.405 259.702 162.564 258.511C162.724 257.32 163.521 256.312 164.642 255.881Z" fill="#1C3541"/>
<path d="M158.684 322.316C159.341 322.358 160.082 322.387 160.709 322.593C162.191 323.083 162.663 323.661 163.278 325.04C163.143 326.874 162.147 327.8 160.954 329.103L160.139 329.209C158.803 328.69 158.382 328.596 157.534 327.375C157.221 325.306 157.745 324.15 158.684 322.316Z" fill="#1C3541"/>
<path d="M230.831 271.123C227.263 275.664 217.285 278.182 211.91 279.915L209.453 279.273C216.918 277.327 223.488 273.081 230.831 271.123Z" fill="#315173"/>
<path d="M203.784 279.125L205.285 278.895L209.453 279.273L211.91 279.915C209.179 280.588 206.235 280.605 203.784 279.125Z" fill="#688EB4"/>
<path d="M162.242 158.36C164.223 159.086 165.94 161.957 167.166 163.714C165.175 170.419 162.715 177.364 161.977 184.328C164.537 193.586 167.647 202.961 169.534 212.36C168.904 213.492 168.22 215.096 167.298 215.974C156.891 237.302 153.72 290.735 151.457 316.379C152.51 334.887 149.849 352.919 154.557 371.174L150.264 379.488C148.057 385.402 144.435 390.726 141.958 396.552C141.755 396.912 141.291 397.979 140.933 398.079C137.526 399.064 123.004 389.925 119.618 387.967C110.258 382.483 102.501 375.549 94.7394 368.043C87.9705 361.221 101.364 347.706 99.1674 339.575C98.6257 339.015 97.7946 337.853 97.5841 337.099C96.8738 334.557 101.231 324.486 101.825 321.031C103.143 313.383 103.039 305.388 103.43 297.657C103.923 287.934 105.119 278.152 105.144 268.423C105.176 256.029 103.941 243.634 103.949 231.222L104.601 230.279C103.094 221.847 105.668 210.261 106.891 201.858L105.623 200.85L103.71 210.803C102.923 216.24 101.932 222.23 102.157 227.726L101.917 228.416L100.604 229.56L99.5683 229.288C96.7371 228.775 93.8894 228.41 91.0381 228.038C77.9667 227.661 65.045 223.97 52.5684 220.367L50.7363 219.559C50.6845 219.394 50.3974 218.687 50.4269 218.569C50.7293 217.307 56.4801 208.822 57.5824 206.528C61.8118 197.731 68.9962 177.388 65.5502 167.63L65.7117 166.374C66.267 165.684 66.8594 165.236 67.6746 164.888C76.0509 161.362 87.1482 164.033 95.0877 167.376C100.922 164.64 107.411 162.877 113.744 161.757C127.418 158.744 137.032 164.298 149.931 167.17C148.645 168.408 146.614 169.906 145.672 171.374C141.559 177.824 136.32 184.452 133.387 191.504L134.831 192.831C135.211 192.436 135.448 192.3 135.572 191.746C139.047 182.842 153.738 162.458 162.242 158.36Z" fill="#96C3DE"/>
<path d="M104.601 230.279L108.054 230.668C107.463 237.702 108.852 245.22 109.358 252.272C109.732 257.479 109.586 262.673 109.724 267.886C110.237 264.271 109.418 257.744 110.922 254.843L111.763 254.755C112.646 255.769 113.322 256.907 114.029 258.051C117.854 269.448 120.308 281.206 123.932 292.633C127.897 305.139 134.73 318.825 141.926 329.757C143.597 332.292 146.019 334.168 147.778 336.656L148.813 337.021C151.868 333.177 149.089 319.987 151.457 316.379C152.51 334.887 149.849 352.919 154.557 371.174L150.264 379.488C148.057 385.402 144.435 390.726 141.958 396.552C141.755 396.912 141.291 397.979 140.933 398.079C137.526 399.064 123.004 389.925 119.618 387.967C110.258 382.483 102.501 375.549 94.7394 368.043C87.9705 361.221 101.364 347.706 99.1674 339.575C98.6257 339.015 97.7946 337.853 97.5841 337.099C96.8738 334.557 101.231 324.486 101.825 321.031C103.143 313.383 103.039 305.388 103.43 297.657C103.923 287.934 105.119 278.152 105.144 268.423C105.176 256.029 103.941 243.634 103.949 231.222L104.601 230.279Z" fill="#7CA8CC"/>
<path d="M104.601 230.279L108.054 230.668C107.463 237.702 108.852 245.22 109.358 252.272C109.732 257.479 109.586 262.673 109.724 267.886C110.237 264.271 109.418 257.744 110.922 254.843L111.763 254.755C112.646 255.769 113.322 256.907 114.029 258.051C117.854 269.448 120.308 281.206 123.932 292.633C127.897 305.139 134.73 318.825 141.926 329.757C143.597 332.292 146.019 334.168 147.778 336.656L148.813 337.021C151.868 333.177 149.089 319.987 151.457 316.379C152.51 334.887 149.849 352.919 154.557 371.174L150.264 379.488C150.457 370.826 148.305 352.004 145.035 344.162C142.971 339.215 137.959 335.382 135.199 330.765C130.293 322.558 125.322 314.22 120.799 305.794C117.491 299.638 114.604 293.235 111.039 287.22C111.819 295.811 111.565 304.509 112.514 313.076C114.259 328.855 120.845 343.72 127.174 358.089C122.002 354.84 116.73 351.739 112.616 347.14C110.804 345.111 108.948 340.606 106.573 339.681L105.781 341.031C104.017 339.445 103.774 334.722 103.423 332.481L101.947 338.03L99.1674 339.575C98.6257 339.015 97.7946 337.853 97.5841 337.099C96.8738 334.557 101.231 324.486 101.825 321.031C103.143 313.383 103.039 305.388 103.43 297.657C103.923 287.934 105.119 278.152 105.144 268.423C105.176 256.029 103.941 243.634 103.949 231.222L104.601 230.279Z" fill="#688EB4"/>
<path d="M104.601 230.279L108.054 230.668C107.463 237.702 108.852 245.22 109.358 252.272C109.732 257.479 109.586 262.673 109.724 267.886C108.913 282.916 108.837 298.388 107.013 313.33C106.231 319.739 104.596 326.125 103.423 332.481L101.947 338.03L99.1674 339.575C98.6257 339.015 97.7946 337.853 97.5841 337.099C96.8738 334.557 101.231 324.486 101.825 321.031C103.143 313.383 103.039 305.388 103.43 297.657C103.923 287.934 105.119 278.152 105.144 268.423C105.176 256.029 103.941 243.634 103.949 231.222L104.601 230.279Z" fill="#D2BE90"/>
<path d="M103.423 332.481C103.774 334.722 104.017 339.445 105.781 341.031C109.499 354.05 111.9 369.405 118.486 381.216L123.671 386.411L119.618 387.967C110.258 382.483 102.501 375.549 94.7394 368.043C87.9705 361.221 101.364 347.706 99.1674 339.575L101.947 338.03L103.423 332.481Z" fill="#5F80A6"/>
<path d="M99.4488 355.566C99.4907 355.684 99.5354 355.796 99.5744 355.914C102.219 363.827 89.8452 366.593 104.849 374.712C109.006 376.964 114.065 379.677 118.486 381.216L123.671 386.411L119.618 387.967C110.258 382.483 102.501 375.549 94.7394 368.043C96.8479 365.018 98.1473 359.151 99.4488 355.566Z" fill="#53719D"/>
<path d="M99.1674 339.575L101.947 338.03C101.082 343.885 100.907 349.817 99.4488 355.566C98.1473 359.151 96.8479 365.018 94.7394 368.043C87.9705 361.221 101.364 347.706 99.1674 339.575Z" fill="#D2BE90"/>
<path d="M123.671 386.411C129.177 390.491 135.859 393.433 141.958 396.552C141.755 396.912 141.291 397.979 140.933 398.079C137.526 399.064 123.004 389.925 119.618 387.967L123.671 386.411Z" fill="#516B87"/>
<path d="M65.5502 167.63L68.3119 168.266C69.3564 179.464 68.2853 189.529 66.5016 200.573C69.7124 203.527 75.8099 208.969 80.3983 209.164L81.0042 208.899C81.8206 209.624 82.1148 209.73 82.2256 210.868C82.2904 211.528 82.07 212.112 81.8495 212.725C83.9775 212.212 84.5616 212.13 86.0595 210.532C89.2532 214.235 98.8379 224.872 99.5683 229.288C96.7371 228.775 93.8894 228.41 91.0381 228.038C77.9667 227.661 65.045 223.97 52.5684 220.367L50.7363 219.559C50.6845 219.394 50.3974 218.687 50.4269 218.569C50.7293 217.307 56.4801 208.822 57.5824 206.528C61.8118 197.731 68.9962 177.388 65.5502 167.63Z" fill="#53719D"/>
<path d="M52.5684 220.367C53.7721 218.999 55.1573 218.12 57.0318 218.02C60.568 217.831 89.9959 224.748 91.591 226.198C91.8521 226.44 91.8326 226.428 92.0389 226.652L91.8686 227.619L91.0381 228.038C77.9667 227.661 65.045 223.97 52.5684 220.367Z" fill="#8E807B"/>
<path d="M66.5016 200.573C69.7124 203.527 75.8099 208.969 80.3983 209.164L81.0042 208.899C81.8206 209.624 82.1148 209.73 82.2256 210.868C82.2904 211.528 82.07 212.112 81.8495 212.725C78.3192 212.195 74.5084 211.711 71.1261 210.549C69.0311 209.83 66.7051 208.521 65.759 206.41C64.8477 204.376 65.7477 202.513 66.5016 200.573Z" fill="#688EB4"/>
<path d="M162.242 158.36C164.223 159.086 165.94 161.957 167.166 163.714C165.175 170.419 162.715 177.364 161.977 184.328C164.537 193.586 167.647 202.961 169.534 212.36C168.904 213.492 168.22 215.096 167.298 215.974C166.562 212.79 163.075 208.639 161.006 206.051C159.527 204.199 158.242 202.194 156.923 200.231L152.892 193.261C146.289 195.077 138.202 198.574 131.414 196.84C131.469 195.066 132.644 193.096 133.387 191.504L134.831 192.831C135.211 192.436 135.448 192.3 135.572 191.746C139.047 182.842 153.738 162.458 162.242 158.36Z" fill="#85ADC8"/>
<path d="M146.208 186.392L153.512 183.603C158.087 189.918 162.032 197.371 164.638 204.753L165.237 205.962C164.134 206.776 162.372 206.222 161.006 206.051C159.527 204.199 158.242 202.194 156.923 200.231L152.892 193.261C146.289 195.077 138.202 198.574 131.414 196.84C131.469 195.066 132.644 193.096 133.387 191.504L134.831 192.831C135.211 192.436 135.448 192.3 135.572 191.746C138.666 191.451 143.251 187.872 146.208 186.392Z" fill="#53719D"/>
<path d="M146.208 186.392L153.512 183.603C158.087 189.918 162.032 197.371 164.638 204.753L165.237 205.962C164.134 206.776 162.372 206.222 161.006 206.051C159.527 204.199 158.242 202.194 156.923 200.231C157.941 200.726 158.822 201.268 159.986 201.239L160.224 198.751C159.595 194.647 155.88 189.393 153.541 186.056C145.518 188.202 138.792 193.179 131.414 196.84C131.469 195.066 132.644 193.096 133.387 191.504L134.831 192.831C135.211 192.436 135.448 192.3 135.572 191.746C138.666 191.451 143.251 187.872 146.208 186.392Z" fill="#0D0B0C"/>
<path d="M160.224 198.751C161.113 200.531 162.148 203.545 163.86 204.606L164.638 204.753L165.237 205.962C164.134 206.776 162.372 206.222 161.006 206.051C159.527 204.199 158.242 202.194 156.923 200.231C157.941 200.726 158.822 201.268 159.986 201.239L160.224 198.751Z" fill="#688EB4"/>
<path d="M162.242 158.36C162.775 160.064 162.347 160.495 161.516 162.063C160.725 163.561 159.725 164.988 158.791 166.397C154.734 170.383 147.199 180.065 146.32 185.667C146.296 185.82 146.264 185.967 146.241 186.121C146.227 186.209 146.219 186.303 146.208 186.392C143.251 187.872 138.666 191.451 135.572 191.746C139.047 182.842 153.738 162.458 162.242 158.36Z" fill="#D6CBAD"/>
<path d="M162.242 158.36C164.223 159.086 165.94 161.957 167.166 163.714C165.175 170.419 162.715 177.364 161.977 184.328C160.978 178.343 159.77 172.394 158.791 166.397C159.725 164.988 160.725 163.561 161.516 162.063C162.347 160.495 162.775 160.064 162.242 158.36Z" fill="#53719D"/>
<path d="M91.0607 180.867C93.4304 184.8 95.7664 188.698 97.4381 192.996C99.246 197.637 101.069 207.218 103.71 210.803C102.923 216.24 101.932 222.23 102.157 227.726L101.917 228.416L100.604 229.56L99.5683 229.288C98.8379 224.872 89.2532 214.235 86.0595 210.532C84.5616 212.13 83.9775 212.212 81.8495 212.725C82.07 212.112 82.2904 211.528 82.2256 210.868C82.1148 209.73 81.8206 209.624 81.0042 208.899C80.4513 207.183 80.5853 205.213 80.5647 203.415L78.0506 199.641L79.8467 199.317L78.4043 196.764C86.3974 200.762 91.2906 205.42 95.9562 212.938C93.9461 202.301 93.1362 191.51 91.0607 180.867Z" fill="#53759F"/>
<path d="M79.8467 199.317C84.9762 205.85 90.4312 212.207 95.2931 218.946C97.2242 221.623 99.5046 226.535 101.917 228.416L100.604 229.56L99.5683 229.288C98.8379 224.872 89.2532 214.235 86.0595 210.532C84.5616 212.13 83.9775 212.212 81.8495 212.725C82.07 212.112 82.2904 211.528 82.2256 210.868C82.1148 209.73 81.8206 209.624 81.0042 208.899C80.4513 207.183 80.5853 205.213 80.5647 203.415L78.0506 199.641L79.8467 199.317Z" fill="#0D0B0C"/>
<path d="M80.5647 203.415C82.517 205.726 84.4001 208.002 86.0595 210.532C84.5616 212.13 83.9775 212.212 81.8495 212.725C82.07 212.112 82.2904 211.528 82.2256 210.868C82.1148 209.73 81.8206 209.624 81.0042 208.899C80.4513 207.183 80.5853 205.213 80.5647 203.415Z" fill="#5F80A6"/>
<path d="M95.0877 167.376C100.922 164.64 107.411 162.877 113.744 161.757C115.679 161.892 117.976 161.591 119.387 162.942L117.527 164.758C110.007 166.244 100.886 169.027 95.2478 174.357C85.5588 168.791 79.5241 167.364 68.3119 168.266L65.5502 167.63L65.7117 166.374C66.267 165.684 66.8594 165.236 67.6746 164.888C76.0509 161.362 87.1482 164.033 95.0877 167.376Z" fill="#D2BE90"/>
<path d="M106.891 201.858L107.238 201.923C107.274 202.011 107.309 202.1 107.347 202.188C107.652 202.914 107.796 203.315 108.491 203.704C111.335 212.537 111.945 223.498 110.369 232.69C110.806 241.629 112.172 249.33 114.029 258.051C113.322 256.907 112.646 255.769 111.763 254.755L110.922 254.843C109.418 257.744 110.237 264.271 109.724 267.886C109.586 262.673 109.732 257.479 109.358 252.272C108.852 245.22 107.463 237.702 108.054 230.668L104.601 230.279C103.094 221.847 105.668 210.261 106.891 201.858Z" fill="#86ABCA"/>
<path d="M108.054 230.668L108.422 230.043C108.581 231.6 109.189 242.001 109.508 242.331C110.172 236.565 108.993 230.485 109.918 224.795C110.062 227.419 110.127 230.078 110.369 232.69C110.806 241.629 112.172 249.33 114.029 258.051C113.322 256.907 112.646 255.769 111.763 254.755L110.922 254.843C109.418 257.744 110.237 264.271 109.724 267.886C109.586 262.673 109.732 257.479 109.358 252.272C108.852 245.22 107.463 237.702 108.054 230.668Z" fill="#688D9C"/>
<path d="M113.744 161.757C127.418 158.744 137.032 164.298 149.931 167.17C148.645 168.408 146.614 169.906 145.672 171.374C142.823 169.469 123.78 163.649 119.958 163.738L119.387 162.942C117.976 161.591 115.679 161.892 113.744 161.757Z" fill="#D2BE90"/>
<path d="M119.387 162.942L119.958 163.738C118.097 167.741 115.958 171.568 113.806 175.413C114.874 171.775 116.127 168.278 117.527 164.758L119.387 162.942Z" fill="#688D9C"/>
<path d="M73.1009 190.672L78.4043 196.764L79.8467 199.317L78.0506 199.641C75.8307 196.953 74.5304 193.821 73.1009 190.672Z" fill="#253B5D"/>
<path d="M105.623 200.85C106.599 197.265 107.809 193.892 109.212 190.46C108.54 194.211 107.561 198.132 107.238 201.923L106.891 201.858L105.623 200.85Z" fill="#253B5D"/>
<path d="M279.428 98.842C288.956 99.3196 297.65 101.932 306.874 104.019C317.008 106.319 324.624 107.221 333.235 113.383C337.315 117.817 343.34 130.164 346.594 136.272C358.887 159.333 373.316 183.025 372.841 210.143C372.787 213.221 371.916 217.207 369.511 219.182C363.654 223.988 351.658 227.579 344.396 228.551C336.492 221.552 332.331 215.638 328.77 205.656L328.719 204.966L329.998 203.498C327.823 199.753 325.907 195.873 325.104 191.587C323.177 184.635 324.494 176.091 324.519 168.891C324.604 157.883 322.831 146.939 319.275 136.52C318.692 135.972 318.574 134.781 318.391 134.02C318.277 133.448 318.035 133.1 317.74 132.605L313.912 131.891C311.878 131.691 309.866 131.213 307.865 130.807L307.339 132.399C306.328 134.675 305.273 136.449 302.821 137.34C299.436 138.566 294.111 137.635 290.942 136.019C290.797 135.942 290.655 135.86 290.514 135.783C288.94 135.624 286.852 135.164 285.391 135.789L284.992 136.933L284.905 136.526C284.264 137.523 283.361 138.46 282.285 138.991C280.74 139.757 278.763 139.592 277.185 139.026C274.898 138.224 273.029 136.532 271.999 134.338C271.076 132.345 271.207 130.86 271.956 128.855L271.829 128.725C272.112 128.082 272.693 127.687 273.209 127.221L273.114 126.502L271.114 126.732L271.491 126.367C269.951 124.639 268.412 122.858 268.66 120.423C269.395 113.235 274.229 103.707 279.428 98.842Z" fill="#CA7D4B"/>
<path d="M333.235 113.383C337.315 117.817 343.34 130.164 346.594 136.272C358.887 159.333 373.316 183.025 372.841 210.143C372.787 213.221 371.916 217.207 369.511 219.182C363.654 223.988 351.658 227.579 344.396 228.551C336.492 221.552 332.331 215.638 328.77 205.656L328.719 204.966L329.998 203.498C327.823 199.753 325.907 195.873 325.104 191.587C326.914 191.009 324.312 184.44 325.884 181.557C326.907 182.925 327.285 186.982 328.006 189.653C331.663 203.209 360.315 228.498 360.478 198.427C360.547 185.49 354.974 168.361 350.733 155.772C348.141 148.077 330.903 119.886 333.235 113.383Z" fill="#914D35"/>
<path d="M329.998 203.498C332.201 206.204 335.843 210.325 337.09 213.551L336.457 213.922C333.34 212.377 331.726 206.428 328.77 205.656L328.719 204.966L329.998 203.498Z" fill="#170B06"/>
<path d="M271.491 126.367C272.628 123.153 277.678 107.091 279.532 105.812C279.641 105.735 279.757 105.67 279.871 105.599L279.888 104.939C280.393 107.881 276.555 118.188 275.54 121.685C275.938 123.401 277.938 127.404 279.421 128.371C279.677 128.536 279.938 128.666 280.221 128.778C281.604 123.348 282.81 117.675 285.279 112.622C286.366 115.287 282.324 128.878 281.434 132.222C283.777 133.389 286.154 134.509 288.375 135.901C289.529 130.488 290.205 123.124 292.598 118.241C293.827 121.938 292.106 129.179 291.594 133.183L290.514 135.783C288.94 135.624 286.852 135.164 285.391 135.789L284.992 136.933L284.905 136.526C284.264 137.523 283.361 138.46 282.285 138.991C280.74 139.757 278.763 139.592 277.185 139.026C274.898 138.224 273.029 136.532 271.999 134.338C271.076 132.345 271.207 130.86 271.956 128.855L271.829 128.725C272.112 128.082 272.693 127.687 273.209 127.221L273.114 126.502L271.114 126.732L271.491 126.367Z" fill="#170B06"/>
<path d="M271.956 128.855C275.781 132.929 280.862 133.088 284.905 136.526C284.264 137.523 283.361 138.46 282.285 138.991C280.74 139.757 278.763 139.592 277.185 139.026C274.898 138.224 273.029 136.532 271.999 134.338C271.076 132.345 271.207 130.86 271.956 128.855Z" fill="#914D35"/>
<path d="M275.54 121.685C275.938 123.401 277.938 127.404 279.421 128.371C279.677 128.536 279.938 128.666 280.221 128.778C279.669 130.105 279.699 130.6 278.322 131.183C276.364 130.647 275.045 128.807 273.724 127.356L275.54 121.685Z" fill="#A05733"/>
<path d="M303.173 122.198C307.691 124.981 313.311 128.442 318.974 126.997C321.929 126.243 323.96 125.075 327.128 125.429C327.61 126.65 327.245 127.127 326.846 128.33L326.166 130.064C323.695 132.027 321.577 133.448 318.391 134.02C318.277 133.448 318.035 133.1 317.74 132.605L313.912 131.891C311.878 131.691 309.866 131.213 307.865 130.807C305.662 129.71 304.266 127.911 302.456 126.308L301.393 128.071L300.845 127.611C301.178 125.529 302.272 124.391 303.042 122.522L303.173 122.198Z" fill="#A05733"/>
<path d="M313.912 131.891C320.364 131.891 321.043 130.488 326.615 128.413C326.691 128.383 326.769 128.359 326.846 128.33L326.166 130.064C323.695 132.027 321.577 133.448 318.391 134.02C318.277 133.448 318.035 133.1 317.74 132.605L313.912 131.891Z" fill="#170B06"/>
<path d="M291.594 133.183C291.796 133.2 291.999 133.218 292.201 133.224C300.839 133.519 297.106 126.125 301.445 122.339C301.892 121.944 302.592 122.162 303.173 122.198L303.042 122.522C302.272 124.391 301.178 125.529 300.845 127.611L301.393 128.071L302.456 126.308C304.266 127.911 305.662 129.71 307.865 130.807L307.339 132.399C306.328 134.675 305.273 136.449 302.821 137.34C299.436 138.566 294.111 137.635 290.942 136.019C290.797 135.942 290.655 135.86 290.514 135.783L291.594 133.183Z" fill="#914D35"/>
<path d="M302.456 126.308C304.266 127.911 305.662 129.71 307.865 130.807L307.339 132.399C306.251 131.779 304.931 131.149 303.986 130.329C302.599 129.138 302.642 128 302.456 126.308Z" fill="#260E0A"/>
<path d="M318.391 134.02C321.577 133.448 323.695 132.027 326.166 130.064C327.072 134.946 326.571 138.69 324.476 143.201C323.335 140.99 322.305 138.495 320.443 136.803L319.275 136.52C318.692 135.972 318.574 134.781 318.391 134.02Z" fill="#A05733"/>
<path d="M5.18395 175.083C6.20644 154.899 29.1778 126.455 40.6441 110.67C46.9461 101.997 51.393 95.4516 62.6442 93.7122C74.1063 91.9374 85.7247 92.2499 97.1833 93.1815C99.5701 93.3761 101.544 92.5388 103.632 94.1485C107.604 97.2147 109.26 104.927 109.948 109.656C110.36 112.492 110.7 116.761 108.869 119.132C108.297 119.869 108.173 119.851 107.286 119.969C106.151 118.695 106.112 117.935 105.738 116.295L103.639 117.097L103.486 120.535C104.157 121.449 105.386 121.815 105.793 122.54C105.838 125.553 105.934 128.012 103.657 130.323C102.151 131.85 100.052 132.617 97.9178 132.546C96.3999 132.499 94.3433 131.921 93.2869 130.759C92.8313 130.252 92.52 129.586 92.2383 128.979C92.8384 127.369 93.7467 127.227 95.2198 126.414L95.2004 124.798C92.4552 125.877 89.0911 127.387 86.1473 126.349L84.399 126.479C84.076 124.055 84.251 117.557 84.2316 114.721C83.2248 116.042 83.549 118.79 83.7158 120.488C83.7223 121.596 83.7117 122.457 83.2678 123.507C82.8387 123.642 82.4107 123.772 81.9716 123.872C80.159 124.279 78.6729 123.401 77.1945 122.445L77.0366 121.083C77.1397 119.191 76.9358 117.74 75.7397 116.29C73.0188 115.387 68.8336 117.622 66.2087 118.583L63.6056 119.126L63.1835 120.429C62.6565 122.876 61.2902 124.987 60.3199 127.275C58.4937 131.579 56.8014 136.225 55.695 140.766C53.1125 151.367 54.2785 164.569 49.4018 174.175L49.4001 176.751L50.1056 177.223L51.8764 176.073C50.8708 177.801 49.9105 179.576 48.8377 181.256C47.8881 180.549 47.0711 179.641 46.2329 178.803L41.7435 184.246C41.9675 185.166 42.2717 186.121 42.3506 187.064C42.0146 187.984 41.7258 188.928 41.2012 189.753L33.9443 197.1C31.0788 199.972 28.2592 202.914 25.3331 205.721C21.7442 204.795 16.2551 203.946 13.3262 201.658C9.57412 199.854 6.46097 197.371 3.51146 194.464C3.4129 188.084 4.05418 181.362 5.18395 175.083Z" fill="#CA7D4B"/>
<path d="M53.5196 114.733C57.1472 117.31 59.0095 118.748 63.1835 120.429C62.6565 122.876 61.2902 124.987 60.3199 127.275C58.4937 131.579 56.8014 136.225 55.695 140.766C53.1125 151.367 54.2785 164.569 49.4018 174.175L49.4001 176.751L50.1056 177.223L51.8764 176.073C50.8708 177.801 49.9105 179.576 48.8377 181.256C47.8881 180.549 47.0711 179.641 46.2329 178.803L41.7435 184.246C41.9675 185.166 42.2717 186.121 42.3506 187.064C42.0146 187.984 41.7258 188.928 41.2012 189.753L33.9443 197.1L32.4179 194.299L31.443 193.421C27.4717 193.733 21.9198 194.671 18.3714 192.483C16.5825 191.386 16.487 189.918 16.018 188.019C24.9404 188.874 32.6555 187.147 38.8619 180.136C46.8863 171.073 46.9818 157.877 49.0149 146.585C50.465 138.537 52.7686 130.535 53.6304 122.381C53.8862 119.845 53.6622 117.268 53.5196 114.733Z" fill="#9B5538"/>
<path d="M41.7435 184.246C41.9675 185.166 42.2717 186.121 42.3506 187.064C42.0146 187.984 41.7258 188.928 41.2012 189.753L33.9443 197.1L32.4179 194.299L31.443 193.421C35.0829 190.62 38.3871 187.377 41.7435 184.246Z" fill="#4A1712"/>
<path d="M42.3506 187.064C42.0146 187.984 41.7258 188.928 41.2012 189.753L33.9443 197.1L32.4179 194.299C35.9117 192.347 39.1876 189.517 42.3506 187.064Z" fill="#785644"/>
<path d="M49.4018 174.175L49.4001 176.751L50.1056 177.223L51.8764 176.073C50.8708 177.801 49.9105 179.576 48.8377 181.256C47.8881 180.549 47.0711 179.641 46.2329 178.803L49.4018 174.175Z" fill="#260E0A"/>
<path d="M6.3126 183.119C8.53595 172.529 10.917 162.458 16.7698 153.171C14.1629 164.056 9.95738 177.612 16.018 188.019C16.487 189.918 16.5825 191.386 18.3714 192.483C21.9198 194.671 27.4717 193.733 31.443 193.421L32.4179 194.299L33.9443 197.1C31.0788 199.972 28.2592 202.914 25.3331 205.721C21.7442 204.795 16.2551 203.946 13.3262 201.658C9.57412 199.854 6.46097 197.371 3.51146 194.464C3.4129 188.084 4.05418 181.362 5.18395 175.083C5.09158 177.73 4.51585 180.926 6.3126 183.119Z" fill="#914D35"/>
<path d="M3.51146 194.464C3.4129 188.084 4.05418 181.362 5.18395 175.083C5.09158 177.73 4.51585 180.926 6.3126 183.119C6.07434 186.333 5.7519 189.564 5.88666 192.789C7.49979 194.328 13.3403 198.803 13.3876 200.873C13.3937 201.138 13.3644 201.393 13.3262 201.658C9.57412 199.854 6.46097 197.371 3.51146 194.464Z" fill="#B46C44"/>
<path d="M53.775 110.705C57.1709 111.271 60.4943 112.604 63.4617 112.769C66.6566 112.946 74.1852 109.178 77.1426 111.325C78.5944 114.06 79.6761 115.983 80.69 118.925C79.9432 118.736 79.4079 118.577 78.6793 118.329C78.3917 120.358 78.3068 119.591 79.1886 121.431C80.8757 122.186 80.3587 121.973 82.4248 121.608L83.7158 120.488C83.7223 121.596 83.7117 122.457 83.2678 123.507C82.8387 123.642 82.4107 123.772 81.9716 123.872C80.159 124.279 78.6729 123.401 77.1945 122.445L77.0366 121.083C77.1397 119.191 76.9358 117.74 75.7397 116.29C73.0188 115.387 68.8336 117.622 66.2087 118.583C64.5122 118.4 62.8404 118.029 61.2241 117.48C57.5175 116.195 55.4744 114.125 53.775 110.705Z" fill="#A05733"/>
<path d="M84.2316 114.721C84.2581 112.003 84.1571 110.777 85.1232 108.17L85.8689 108.335L86.1589 110.205C87.2194 114.049 86.054 119.338 88.0517 121.655C90.152 122.162 90.452 122.233 92.5782 121.903C94.8217 119.822 93.6805 111.254 93.8644 107.168C94.9072 113.029 94.2885 118.837 95.2004 124.798C92.4552 125.877 89.0911 127.387 86.1473 126.349L84.399 126.479C84.076 124.055 84.251 117.557 84.2316 114.721Z" fill="#914D35"/>
<path d="M84.2316 114.721C84.2581 112.003 84.1571 110.777 85.1232 108.17L85.8689 108.335L86.1589 110.205L86.1473 126.349L84.399 126.479C84.076 124.055 84.251 117.557 84.2316 114.721Z" fill="#170B06"/>
<path d="M95.2198 126.414C99.7198 125.983 102.34 125.665 105.793 122.54C105.838 125.553 105.934 128.012 103.657 130.323C102.151 131.85 100.052 132.617 97.9178 132.546C96.3999 132.499 94.3433 131.921 93.2869 130.759C92.8313 130.252 92.52 129.586 92.2383 128.979C92.8384 127.369 93.7467 127.227 95.2198 126.414Z" fill="#A05733"/>
<path d="M93.8644 107.168C93.9157 105.428 93.6341 103.73 94.7364 102.61C96.3881 107.097 95.9319 109.237 96.6109 111.431C96.6068 114.904 95.6743 123.589 99.7823 124.226C102.012 123.094 102.18 122.675 103.486 120.535C104.157 121.449 105.386 121.815 105.793 122.54C102.34 125.665 99.7198 125.983 95.2198 126.414L95.2004 124.798C94.2885 118.837 94.9072 113.029 93.8644 107.168Z" fill="#170B06"/>
<path d="M102.629 109.744C103.163 112.545 103.48 114.226 103.639 117.097L103.486 120.535C102.18 122.675 102.012 123.094 99.7823 124.226C95.6743 123.589 96.6068 114.904 96.6109 111.431C98.3033 115.187 97.7149 119.155 98.9098 120.458C99.8034 120.252 100.738 120.293 101.662 120.281C102.619 118.164 102.546 112.362 102.629 109.744Z" fill="#B46C44"/>
<path d="M53.5196 114.733C53.0239 113.076 50.7893 105.859 51.8645 104.638C52.5648 106.708 53.1785 108.594 53.775 110.705C55.4744 114.125 57.5175 116.195 61.2241 117.48C62.8404 118.029 64.5122 118.4 66.2087 118.583L63.6056 119.126L63.1835 120.429C59.0095 118.748 57.1472 117.31 53.5196 114.733Z" fill="#170B06"/>
<path d="M102.629 109.744C102.332 105.635 101.033 100.918 101.028 97.3445C104.112 104.255 105.191 108.654 105.738 116.295L103.639 117.097C103.48 114.226 103.163 112.545 102.629 109.744Z" fill="#260E0A"/>
<path d="M88.5872 97.0022C88.6804 97.0022 88.7741 96.9963 88.8672 97.0022C90.9203 97.0199 92.0338 97.3442 93.4639 98.7888C91.8859 98.8478 90.4287 98.9775 88.9309 98.3878L88.5872 97.0022Z" fill="#754129"/>
<path d="M320.819 175.731L320.022 182.153C320.803 191.77 323.643 202.324 327.388 211.269C331.504 218.18 336.738 228.54 345.241 230.592C347.33 231.099 350.247 230.362 352.366 230.037C350.259 233.257 348.122 236.913 344.005 237.691C341.936 238.08 339.867 237.892 337.798 237.638L332.563 236.695C330.017 237.62 327.388 239.46 325.012 240.798C322.338 239.283 320.073 237.514 317.723 235.539C314.557 230.539 312.389 225.55 310.633 219.902C309.999 218.198 309.445 216.464 308.975 214.707C305.688 202.236 307.238 190.414 313.707 179.287C315.926 177.872 318.435 176.846 320.819 175.731Z" fill="#86ABCA"/>
<path d="M327.388 211.269C331.504 218.18 336.738 228.54 345.241 230.592C347.33 231.099 350.247 230.362 352.366 230.037C350.259 233.257 348.122 236.913 344.005 237.691C341.936 238.08 339.867 237.892 337.798 237.638L332.563 236.695C330.017 237.62 327.388 239.46 325.012 240.798C322.338 239.283 320.073 237.514 317.723 235.539C314.557 230.539 312.389 225.55 310.633 219.902C311.548 220.987 312.327 222.036 313.039 223.262L313.742 223.021C313.459 220.102 313.194 217.213 313.178 214.276C314.801 217.148 317.087 221.859 320.073 223.498L320.633 223.192C322.318 223.327 322.69 223.05 324.163 222.313C324.912 223.28 325.477 224.153 326.696 224.548C328.615 222.478 327.378 214.194 327.388 211.269Z" fill="#53719D"/>
<path d="M319.771 234.671C322.814 236.163 324.963 235.821 328.192 235.149C329.585 235.521 331.429 235.804 332.563 236.695C330.017 237.62 327.388 239.46 325.012 240.798C322.338 239.283 320.073 237.514 317.723 235.539L319.771 234.671Z" fill="#818391"/>
<path d="M310.633 219.902C311.548 220.987 312.327 222.036 313.039 223.262L313.742 223.021C315.591 226.747 316.646 230.75 319.248 234.052C319.416 234.265 319.588 234.471 319.771 234.671L317.723 235.539C314.557 230.539 312.389 225.55 310.633 219.902Z" fill="#688EB4"/>
<path d="M328.192 235.149C331.151 234.312 336.37 234.023 339.113 235.692C339.408 235.869 339.662 236.064 339.916 236.293L339.69 237.16L337.798 237.638L332.563 236.695C331.429 235.804 329.585 235.521 328.192 235.149Z" fill="#5F80A6"/>
<path d="M320.022 182.153C320.803 191.77 323.643 202.324 327.388 211.269C327.378 214.194 328.615 222.478 326.696 224.548C325.477 224.153 324.912 223.28 324.163 222.313C321.564 217.183 318.757 212.077 316.841 206.646C315.072 198.857 317.021 191.381 317.769 183.621L320.022 182.153Z" fill="#86ABCA"/>
<path d="M315.607 208.197C314.336 202.018 313.703 192.064 315.865 186.038C316.319 184.776 316.563 184.205 317.769 183.621C317.021 191.381 315.072 198.857 316.841 206.646C318.757 212.077 321.564 217.183 324.163 222.313C322.69 223.05 322.318 223.327 320.633 223.192C318.994 218.085 316.552 213.569 315.607 208.197Z" fill="#315173"/>
<path d="M54.3473 170.342C54.53 167.6 55.4855 164.469 56.2595 161.822L57.3588 161.244C59.9213 162.311 61.2033 162.918 62.3186 165.589C66.3394 175.218 61.5146 190.519 58.0839 199.977C57.1685 202.637 56.2 204.972 54.7175 207.366C52.7539 211.994 49.9263 217.042 45.767 220.019C44.6441 220.798 43.2046 221.694 41.797 221.658C38.5301 221.57 23.571 214.96 21.5258 212.596C20.5021 211.41 19.9528 209.836 20.1148 208.285L21.0237 207.89C22.1418 208.132 23.4409 208.468 24.5847 208.403C28.1403 208.197 33.1772 201.157 35.5186 198.633C38.0032 196.268 40.1535 193.326 42.3558 190.69L41.2012 189.753C41.7258 188.928 42.0146 187.984 42.3506 187.064C42.2717 186.121 41.9675 185.166 41.7435 184.246L46.2329 178.803C47.0711 179.641 47.8881 180.549 48.8377 181.256C49.9105 179.576 50.8708 177.801 51.8764 176.073C52.9769 174.316 53.6193 172.276 54.3473 170.342Z" fill="#86ABCA"/>
<path d="M35.5186 198.633L35.528 198.851C35.6288 201.528 33.9742 203.858 34.444 206.198L36.8932 207.731C39.1284 207.425 40.7448 208.722 42.8568 208.964C46.1213 209.335 48.8375 205.184 51.2001 203.492C52.2659 202.725 52.6414 202.596 53.9217 202.826C55.0016 204.536 54.7558 205.378 54.7175 207.366C52.7539 211.994 49.9263 217.042 45.767 220.019C44.6441 220.798 43.2046 221.694 41.797 221.658C38.5301 221.57 23.571 214.96 21.5258 212.596C20.5021 211.41 19.9528 209.836 20.1148 208.285L21.0237 207.89C22.1418 208.132 23.4409 208.468 24.5847 208.403C28.1403 208.197 33.1772 201.157 35.5186 198.633Z" fill="#53719D"/>
<path d="M45.767 220.019C44.6441 220.798 43.2046 221.694 41.797 221.658C38.5301 221.57 23.571 214.96 21.5258 212.596C20.5021 211.41 19.9528 209.836 20.1148 208.285L21.0237 207.89C21.5142 209.6 21.6454 210.508 23.3123 211.446C30.1052 215.255 39.4008 215.326 45.767 220.019Z" fill="#8E807B"/>
<path d="M54.3473 170.342L55.6697 170.342C57.0225 176.273 48.6356 195.431 45.1902 200.968C43.6193 203.497 41.374 206.752 38.3406 207.501C37.8619 207.613 37.3819 207.678 36.8932 207.731L34.444 206.198C33.9742 203.858 35.6288 201.528 35.528 198.851L35.5186 198.633C38.0032 196.268 40.1535 193.326 42.3558 190.69L41.2012 189.753C41.7258 188.928 42.0146 187.984 42.3506 187.064C42.2717 186.121 41.9675 185.166 41.7435 184.246L46.2329 178.803C47.0711 179.641 47.8881 180.549 48.8377 181.256C49.9105 179.576 50.8708 177.801 51.8764 176.073C52.9769 174.316 53.6193 172.276 54.3473 170.342Z" fill="#86ABCA"/>
<path d="M46.2329 178.803C47.0711 179.641 47.8881 180.549 48.8377 181.256C47.0168 184.417 44.9117 188.09 42.3558 190.69L41.2012 189.753C41.7258 188.928 42.0146 187.984 42.3506 187.064C42.2717 186.121 41.9675 185.166 41.7435 184.246L46.2329 178.803Z" fill="#260E0A"/>
<path d="M54.3473 170.342C54.53 167.6 55.4855 164.469 56.2595 161.822L57.3588 161.244C57.1708 161.574 56.618 162.305 56.5637 162.641C56.4052 163.62 57.3383 166.085 57.422 167.276C57.6059 169.888 57.2764 172.624 56.915 175.206C56.5667 177.689 56.17 180.236 55.2917 182.595C53.63 187.058 45.7895 200.119 46.7426 203.957C48.0902 204.358 56.2985 200.997 57.9077 200.095C57.969 200.06 58.0255 200.019 58.0839 199.977C57.1685 202.637 56.2 204.972 54.7175 207.366C54.7558 205.378 55.0016 204.536 53.9217 202.826C52.6414 202.596 52.2659 202.725 51.2001 203.492C48.8375 205.184 46.1213 209.335 42.8568 208.964C40.7448 208.722 39.1284 207.425 36.8932 207.731C37.3819 207.678 37.8619 207.613 38.3406 207.501C41.374 206.752 43.6193 203.497 45.1902 200.968C48.6356 195.431 57.0225 176.273 55.6697 170.342L54.3473 170.342Z" fill="#315173"/>
<path d="M168.135 164.911C172.115 167.865 176.093 169.54 181.037 169.988C194.852 171.256 208.545 162.718 218.676 154.227C219.161 158.643 219.23 162.057 218.074 166.397C216.153 170.678 213.77 173.09 210.185 176.067C201.06 184.505 195.556 190.584 182.463 190.048C179.936 189.959 177.416 189.717 174.916 189.334C174.683 189.334 174.45 189.334 174.217 189.322C172.232 189.228 167.94 187.459 166.698 185.95C163.864 182.494 167.594 177.3 167.99 173.449L168.135 164.911Z" fill="#914D35"/>
<path d="M210.904 168.426C210.942 171.05 210.096 173.473 210.185 176.067C201.06 184.505 195.556 190.584 182.463 190.048C179.936 189.959 177.416 189.717 174.916 189.334C174.683 189.334 174.45 189.334 174.217 189.322C172.232 189.228 167.94 187.459 166.698 185.95C163.864 182.494 167.594 177.3 167.99 173.449C168.055 174.687 167.895 177.088 168.473 178.125C168.489 177.117 168.595 176.439 169.025 175.525C171.562 175.36 175.666 178.603 178.344 179.493C186.622 182.235 203.226 172.4 210.904 168.426Z" fill="#CA7D4B"/>
<path d="M167.99 173.449C168.055 174.687 167.895 177.088 168.473 178.125C169.531 183.509 170.999 185.572 174.916 189.334C174.683 189.334 174.45 189.334 174.217 189.322C172.232 189.228 167.94 187.459 166.698 185.95C163.864 182.494 167.594 177.3 167.99 173.449Z" fill="#785644"/>
<path d="M210.904 168.426C212.813 166.963 214.75 165.088 217.222 165.1L218.074 166.397C216.153 170.678 213.77 173.09 210.185 176.067C210.096 173.473 210.942 171.05 210.904 168.426Z" fill="#B46C44"/>
<path d="M164.879 186.469C173.779 192.465 180.365 192.778 190.869 191.935C187.643 194.83 184.32 197.572 180.945 200.29C177.413 203.539 174.199 207.112 171.347 210.968C169.487 202.79 166.189 194.747 164.879 186.469Z" fill="#4E4444"/>
<path d="M140.866 121.054C138.989 117.015 135.424 102.073 142.951 103.359C143.494 105.151 143.518 104.385 142.74 106.248C143.024 109.102 144.915 109.167 145.488 111.425C146.519 115.5 146.228 121.284 146.189 125.547C146.383 126.308 146.255 126.738 146.02 127.475L145.087 127.245C143.248 125.417 142.118 123.295 140.866 121.054Z" fill="#A05733"/>
<path d="M140.866 121.054C138.989 117.015 135.424 102.073 142.951 103.359C143.494 105.151 143.518 104.385 142.74 106.248C139.888 109.686 141.08 116.644 142.964 120.311L140.866 121.054Z" fill="#CA7D4B"/>
<path d="M142.964 120.311C144.795 121.709 145.618 123.342 146.189 125.547C146.383 126.308 146.255 126.738 146.02 127.475L145.087 127.245C143.248 125.417 142.118 123.295 140.866 121.054L142.964 120.311Z" fill="#B46C44"/>
<path d="M83.7158 120.488C83.549 118.79 83.2248 116.042 84.2316 114.721C84.251 117.557 84.076 124.055 84.399 126.479C82.4461 127.628 78.258 127.386 76.0481 126.808C73.4828 126.136 71.2994 125.146 69.9324 122.793C69.656 121.396 69.7638 120.829 70.3615 119.568C71.5652 118.89 72.4418 118.536 73.8253 118.377C74.9511 119.656 74.6228 121.413 75.0319 123.07C76.0735 122.616 76.3864 121.968 77.0366 121.083L77.1945 122.445C78.6729 123.401 80.159 124.279 81.9716 123.872C82.4107 123.772 82.8387 123.642 83.2678 123.507C83.7117 122.457 83.7223 121.596 83.7158 120.488Z" fill="#A05733"/>
<path d="M255.667 368.686C255.012 370.879 254.55 373.355 252.813 374.959L252.156 374.835C251.783 372.872 252.706 371.056 253.402 369.258L255.667 368.686Z" fill="#818391"/>
<path d="M97.2984 0L98.0323 0.229969C102.789 5.39523 119.435 35.2135 122.898 42.4955C120.019 40.5261 117.16 38.5272 114.324 36.493C103.765 29.0753 94.1152 20.7082 83.0539 13.951C87.1419 8.70903 92.2897 4.32797 97.2984 0Z" fill="#3B1F0F"/>
<path d="M97.7807 1.34442C101.73 9.08642 107.44 18.2553 111.94 25.8853C114.491 30.0364 117.082 34.0401 119.062 38.5037C117.274 37.0944 111.377 32.6603 110.053 31.3218C105.098 28.3677 91.6514 17.6539 85.1384 13.2906C88.5037 9.66427 94.0099 4.8292 97.7807 1.34442Z" fill="#F4A119"/>
<path d="M111.94 25.8853C114.491 30.0364 117.082 34.0401 119.062 38.5037C117.274 37.0944 111.377 32.6603 110.053 31.3218L110.907 30.7382L112.34 31.664C112.843 29.3231 110.941 31.198 111.94 25.8853Z" fill="#EDAE20"/>
<path d="M301.251 12.2822C301.342 12.294 301.434 12.294 301.522 12.3234C304.508 13.1253 311.634 23.6681 313.76 26.5397C304.514 32.442 294.039 37.0117 284.521 42.6192C281.427 44.4059 278.35 46.2279 275.29 48.0734C283.734 36.1155 291.852 23.5149 301.251 12.2822Z" fill="#170B06"/>
<path d="M301.289 14.0511C304.751 15.3601 309.285 23.0549 311.556 26.0857C304.116 30.8382 295.791 34.0812 288.393 39.0165C285.658 40.9977 282.634 42.572 279.684 44.2112C283.125 36.77 295.743 21.6929 301.289 14.0511Z" fill="#EDAE20"/>
<path d="M82.0116 41.7055C86.4933 43.1147 109.374 53.3687 111.633 55.8452C111.929 56.1695 112.229 56.9301 112.45 57.331C102.629 56.1105 92.0255 56.4348 82.0989 56.1046C81.9615 51.3049 81.9321 46.5052 82.0116 41.7055Z" fill="#5E3B1F"/>
<path d="M83.175 43.522C87.3431 45.7685 105.935 53.0565 107.62 55.5035C100.002 55.9162 91.4328 54.6308 83.7715 54.1001C83.5039 50.58 83.3052 47.0539 83.175 43.522Z" fill="#F4A119"/>
<path d="M314.421 49.0994L314.796 49.176C316.678 51.3577 315.591 59.7188 315.492 62.7849C307.674 61.7766 299.843 60.8804 292 60.0903C290.579 59.7719 289.866 59.878 288.963 58.6988C290.68 55.8862 310.481 50.4379 314.421 49.0994Z" fill="#3B1F0F"/>
<path d="M311.957 50.8743C312.907 50.8979 313.051 51.0925 313.806 51.6291C314.661 54.5832 314.244 58.1269 314.157 61.1872C308.616 60.7862 302.999 60.1377 297.494 59.3888C295.916 59.3888 294.28 59.5715 292.876 58.7342C293.999 56.6233 308.731 52.1421 311.957 50.8743Z" fill="#EDAE20"/>
<path d="M267.399 12.7897C271.021 13.3263 274.464 14.8063 277.873 16.0976C275.19 19.2699 272.932 22.9964 270.563 26.4163C270.047 27.1887 269.53 27.9612 268.973 28.7041C268.125 29.8303 267.562 30.3669 266.172 30.5497C266.017 30.3551 265.935 30.2667 265.801 30.0367C264.067 27.0885 266.703 16.2332 267.399 12.7897Z" fill="#EDAE20"/>
<path d="M132.621 7.99561C132.649 8.0192 132.678 8.04278 132.704 8.06637C134.644 9.95912 133.915 26.021 133.88 29.1638C132.331 27.218 131.06 25.0126 129.728 22.9194C127.468 18.9216 125.25 14.9062 123.076 10.8613C126.139 9.67609 129.462 8.90956 132.621 7.99561Z" fill="#5E3B1F"/>
<path d="M130.018 10.2833L131.161 10.3717C131.666 10.867 131.87 11.3151 132.005 12.0109C132.496 14.5464 133.405 20.9322 132.001 23.0195L131.307 22.3769C129.731 19.1043 126.43 15.8259 126.244 12.1819C127.217 10.755 128.414 10.7491 130.018 10.2833Z" fill="#EDAE20"/>
<path d="M292.169 72.9332C295.254 73.1631 298.793 72.7562 301.801 73.3341C303.293 73.6171 303.854 74.1537 304.694 75.3566C304.927 77.1019 303.857 78.7411 303.094 80.2624L301.902 80.7164C299.503 79.5371 297.134 78.2163 295.014 76.5712C293.625 75.4981 292.386 74.7198 292.169 72.9332Z" fill="#5E3B1F"/>
</svg>
