<svg width="448" height="269" viewBox="0 0 448 269" fill="none" xmlns="http://www.w3.org/2000/svg">
<path d="M339.274 43.7611C327.957 -1.60864 307.575 -9.88512 285.898 10.5752C284.582 11.8169 270.616 5.21677 267.954 5.33651C225.595 7.24242 220.555 58.0619 247.075 83.1366C251.128 86.9698 256.275 90.1944 260.198 92.9613C192.856 79.5358 144.21 109.024 130.042 177.899C127.702 189.289 127.275 196.858 129.101 208.277C102.338 226.438 69.2081 228.376 50.1222 199.652C27.7865 166.024 68.0621 128.548 72.2898 88.9371C77.1518 43.3977 8.27726 13.5076 5.77569e-05 33.9095C4.97465 43.2594 27.5627 45.9992 34.7723 52.6079C62.8723 78.3683 49.7617 103.058 32.3848 130.13C16.7612 154.478 11.9932 184.1 25.7325 210.515C51.0843 255.29 102.096 256.003 143.123 237.471C147.333 240.351 160.873 248.148 162.395 251.113C160.721 257.229 160.219 255.39 162.494 259.837C177.077 268.034 210.717 266.152 227.508 267.948C237.777 269.046 241.957 265.582 246.607 256.944C258.041 256.274 272.331 260.408 273.592 247.378C268.226 236.502 261.729 241.961 258.406 235.318C261.253 231.598 262.224 231.284 266.296 228.718C270.985 236.088 280.136 252.154 286.519 257.229C292.938 262.332 313.546 263.544 319.458 256.031C320.127 242.831 305.877 242.845 299.265 236.046L301.57 230.472C326.039 242.917 323.961 209.474 317.957 195.105L311.994 181.149C317.583 168.576 322.084 159.938 333.882 152.083C349.075 150.244 365.642 148.405 380.462 144.485L376.692 164.086C380.643 156.502 386.295 143.174 393.752 139.895C395.877 145.868 396.636 152.682 397.639 159.011L400.155 138.027C414.46 129.959 427.374 125.526 426.954 107.682C430.486 105.102 443.32 108.043 447.744 105.804C438.469 101.745 425.413 103.949 422.298 101.397C426.056 94.3597 440.1 93.1495 447.75 89.9834C440.961 85.2963 424.679 94.411 418.058 98.0874C383.254 70.2586 384.687 48.7889 339.274 43.7611Z" fill="#0B0302"/>
<path d="M301.57 230.472C300.525 222.902 300.886 216.844 297.498 210.5L296.231 211.441C295.267 220.906 296.753 226.822 299.265 236.046L301.57 230.472Z" fill="#F6F4F4"/>
<path d="M317.821 60.1259C311.408 55.9064 296.217 18.1945 278.479 13.707C266.864 10.7676 261.317 11.2864 250.597 15.9878L247.657 19.1424C218.858 55.952 251.485 96.589 293.525 90.7843C294.808 90.6047 296.087 90.3838 297.355 90.1229L299.669 90.2555C296.812 94.9982 290.016 96.4194 284.771 97.5028C273.864 95.9247 260.127 96.4522 248.71 96.0331L246.773 96.5919C212.906 92.7345 180.889 100.398 159.103 128.262C145.819 145.568 143.457 154.392 136.846 175.518C133.851 191.826 131.779 209.061 140.858 224.185C147.089 234.563 169.37 245.126 172.093 249.246C179.549 252.71 188.103 251.883 196.183 252.98C198.873 248.119 217.079 250.229 230.198 225.14C231.131 223.073 231.848 220.75 232.297 218.597C238.548 188.562 214.854 181.947 207.58 170.215L208.775 169.531C220.755 173.679 227.61 182.275 233.957 192.639L238.154 205.768C243.396 203.187 247.443 199.994 252.677 197.799L252.613 188.334L254.367 183.073C256.783 193.537 258.233 203.472 262.575 213.437C267.552 224.869 279.527 236.188 284.211 247.079L285.75 249.075C291.463 255.646 299.153 259.31 307.491 255.746L307.486 251.555C310.054 252.439 311.973 253.152 314.571 252.61C311.767 248.747 308.743 247.735 304.452 245.525C283.867 239.852 288.011 189.246 292.96 173.907L294.517 173.95C294.264 181.52 293.684 189.517 293.267 197.115C308.272 177.143 308.372 165.055 329.529 147.935C345.509 144.471 363.257 144.271 378.964 139.139C385.574 136.972 385.617 134.706 388.45 129.018C390.747 125.383 390.593 125.369 393.927 122.781L399.121 122.419L400.402 121.843C400.071 126.31 399.266 126.737 401.045 129.959C405.652 128.861 406.048 128.063 409.69 124.727C411.99 112.98 400.258 118.619 410.297 99.872L407.82 97.7751C379.369 74.5735 367.909 39.0996 319.656 51.8779C316.756 55.4117 317.666 54.2186 317.821 60.1259Z" fill="#916E5A"/>
<path d="M247.657 19.1424C218.858 55.952 251.485 96.589 293.525 90.7843C294.808 90.6047 296.087 90.3838 297.355 90.1229C297.857 86.9255 297.988 88.5306 296.388 85.2519C274.083 70.9883 286.602 54.967 273.971 35.5729C266.832 24.6121 253.444 28.8716 247.657 19.1424Z" fill="#CF9076"/>
<path d="M136.846 175.518C133.851 191.826 131.779 209.061 140.858 224.185C147.089 234.563 169.37 245.126 172.093 249.246C179.549 252.71 188.103 251.883 196.183 252.98C198.873 248.119 217.079 250.229 230.198 225.14C203.071 237.157 177.009 237.856 154.079 215.675C144.414 206.324 136.719 189.032 136.846 175.518Z" fill="#775243"/>
<path d="M388.45 129.018C352.655 141.776 322.829 136.003 293.765 113.011C299.692 128.605 302.31 138.013 316.852 147.478L329.529 147.935C345.509 144.471 363.257 144.271 378.964 139.139C385.574 136.972 385.617 134.706 388.45 129.018Z" fill="#775243"/>
<path d="M250.597 15.9878L247.657 19.1424C253.444 28.8716 266.832 24.6121 273.971 35.5729C286.602 54.967 274.083 70.9883 296.388 85.2519L295.956 79.4931C292.877 74.9571 289.038 70.8159 291.483 65.3405L297.013 64.5223C303.996 49.6086 278.908 26.6052 265.937 20.7121L256.994 20.3372L253.518 19.8583L250.597 15.9878Z" fill="#B16F5D"/>
<path d="M246.773 96.5919C212.906 92.7345 180.889 100.398 159.103 128.262C167.631 128.063 168.093 125.967 175.597 121.872C187.965 115.123 199.586 109.528 213.531 106.794C221.445 105.242 241.855 104.539 247.161 99.9617L246.773 96.5919Z" fill="#B48770"/>
<path d="M407.82 97.7751C379.369 74.5735 367.909 39.0996 319.656 51.8779C316.756 55.4117 317.666 54.2186 317.821 60.1259C328.119 54.5265 341.069 55.4117 351.836 57.6697C374.134 62.3468 391.126 96.3268 404.778 100.084C407.181 98.8342 406.591 99.6796 407.82 97.7751Z" fill="#A47C69"/>
<path d="M329.529 147.935L316.852 147.478C308.432 151.698 299.994 156.474 296.486 166.851C295.635 169.374 296.025 171.299 294.517 173.95C294.264 181.52 293.684 189.517 293.267 197.115C308.272 177.143 308.372 165.055 329.529 147.935Z" fill="#B48770"/>
<path d="M284.211 247.079L292.011 244.769C286.827 238.326 277.382 229.745 274.25 222.574C267.621 207.407 260.019 191.512 255.511 175.689L254.473 177.072L254.592 175.575L255.507 178.412L253.806 179.338L254.367 183.073C256.783 193.537 258.233 203.472 262.575 213.437C267.552 224.869 279.527 236.188 284.211 247.079Z" fill="#775243"/>
<path d="M269.839 18.3143L265.937 20.7121C278.908 26.6052 303.996 49.6086 297.013 64.5223L291.483 65.3405C289.038 70.8159 292.877 74.9571 295.956 79.4931L300.464 78.4823L300.727 76.5151C298.189 74.1644 295.403 72.3226 294.786 69.138L297.182 68.1816C301.198 69.0725 302.35 69.657 306.229 68.7675C304.491 64.4966 302.839 66.9727 300.792 58.2728C296.361 39.4361 286.803 27.6015 269.839 18.3143Z" fill="#0B0302"/>
<path d="M284.771 97.5028C273.864 95.9247 260.127 96.4522 248.71 96.0331C250.79 100.321 250.512 102.003 255.628 103.267C264.646 105.498 277.571 103.253 284.771 97.5028Z" fill="#775243"/>
<path d="M252.613 188.334C245.155 190.785 241.758 191.384 233.957 192.639L238.154 205.768C243.396 203.187 247.443 199.994 252.677 197.799L252.613 188.334Z" fill="#775243"/>
<path d="M304.452 245.525C296.389 251.626 293.309 244.598 285.75 249.075C291.463 255.646 299.153 259.31 307.491 255.746L307.486 251.555C310.054 252.439 311.973 253.152 314.571 252.61C311.767 248.747 308.743 247.735 304.452 245.525Z" fill="#B48770"/>
<path d="M269.839 18.3143C264.211 18.2716 262.033 17.7955 256.994 20.3372L265.937 20.7121L269.839 18.3143Z" fill="#532C24"/>
<path d="M358.339 72.3384C328.84 56.1944 310.103 100.263 342.509 111.829C351.992 113.211 360.629 111.292 366.351 102.897C369.531 98.3054 370.655 92.5963 369.447 87.1437C367.932 80.5193 363.773 76.0162 358.339 72.3384Z" fill="#FEFEFE"/>
<path d="M358.339 72.3384L356.355 75.5316C354.482 76.5081 352.625 77.5173 350.785 78.5579C335.419 87.1067 345.237 98.5978 354.534 105.981C350.929 108.343 347.639 108.062 342.907 108.174L342.509 111.829C351.992 113.211 360.629 111.292 366.351 102.897C369.531 98.3054 370.655 92.5963 369.447 87.1437C367.932 80.5193 363.773 76.0162 358.339 72.3384Z" fill="#2F140C"/>
<path d="M358.339 72.3384C328.84 56.1944 310.103 100.263 342.509 111.829L342.907 108.174C333.099 103.219 326.854 94.4195 331.039 83.2378C332.659 78.8772 336.095 75.436 340.454 73.8123C346.382 71.6427 350.907 73.1966 356.355 75.5316L358.339 72.3384Z" fill="#230A06"/>
<path d="M47.322 137.828C41.0974 138.17 37.9373 139.567 32.1645 141.591L26.2691 157.343C15.784 193.579 35.5283 229.901 72.1721 240.079C97.4327 247.079 116.51 242.089 139.916 232.567L130.419 214.862C128.509 216.031 119.901 221.12 118.724 222.204C85.0918 236.345 52.7313 223.729 39.1973 189.631C39.1603 186.566 39.0006 186.708 38.2951 183.7C36.5889 163.43 39.3057 156.217 47.322 137.828Z" fill="#916E5A"/>
<path d="M39.1973 189.631C33.3319 191.028 34.0644 189.83 31.7467 193.551C32.4437 202.774 40.9675 211.826 45.1995 222.232C63.738 233.123 104.29 241.904 123.165 230.557L124.076 227.393C121.872 224.784 121.584 223.914 118.724 222.204C85.0918 236.345 52.7313 223.729 39.1973 189.631Z" fill="#CF9076"/>
<path d="M47.322 137.828C41.0974 138.17 37.9373 139.567 32.1645 141.591L26.2691 157.343C26.8962 164.656 26.8684 183.701 31.6776 187.877L33.609 188.604C36.5125 186.779 36.8497 186.894 38.2951 183.7C36.5889 163.43 39.3057 156.217 47.322 137.828Z" fill="#CF9076"/>
<path d="M47.322 137.828C58.8691 119.712 70.4244 99.0351 65.2118 76.6987C61.6384 61.8107 52.2223 48.9896 39.086 41.128C30.4567 35.9334 19.6366 32.8771 9.58906 32.3639L8.46729 33.7681L7.74746 32.7089L9.88702 32.3768L7.99551 33.3704C20.7128 40.5379 30.3797 40.7631 41.3038 51.309C73.2424 82.1499 49.6796 111.657 32.1645 141.591C37.9373 139.567 41.0974 138.17 47.322 137.828Z" fill="#B78573"/>
<path d="M308.403 4.90869C306.9 4.99849 305.378 5.08398 303.887 5.29639C299.121 5.97493 297.068 7.65417 294.374 11.2735C293.611 20.9285 309.452 38.4852 314.691 47.8907C321.406 46.1416 328.381 45.406 335.245 44.4551C329.377 27.8037 323.691 14.5694 308.403 4.90869Z" fill="#775243"/>
<path d="M252.677 197.799C247.443 199.994 243.396 203.187 238.154 205.768C239.233 224.142 235.042 228.961 223.737 243.53C242.993 237.257 246.478 235.761 262.619 223.672C257.768 213.38 255.885 208.69 252.677 197.799Z" fill="#A87B65"/>
<path d="M172.093 249.246L167.72 252.966L168.124 255.361C176.712 260.564 218.854 262.631 230.26 262.246L230.789 260.079L226.711 255.062L226.909 254.192L230.802 250.856C217.348 249.73 207.689 254.064 196.183 252.98C188.103 251.883 179.549 252.71 172.093 249.246Z" fill="#CF9076"/>
<path d="M307.87 185.725L295.67 201.063C310.117 211.398 299.92 215.033 305.972 224.741C308.393 226.48 309.585 226.452 312.444 226.494C314.607 225.097 315.435 224.898 316.354 222.503C320.672 211.227 312.568 195.931 307.87 185.725Z" fill="#855F52"/>
<path d="M253.347 240.607C249.211 239.338 241.299 241.348 237.59 243.43C235.536 244.584 235.718 244.898 235.075 247.15C238.375 250.671 243.276 250.7 247.838 251.427C253.476 251.911 260.399 252.895 265.381 249.859L265.849 247.449C262.741 243.358 258.017 242.275 253.347 240.607Z" fill="#956552"/>
<path d="M416.527 102.722C413.099 103.684 411.532 104.236 409.34 107.101C408.739 112.092 411.648 115.975 413.996 120.189C414.862 120.045 415.146 120.045 416.044 119.616C419.183 118.116 420.008 116.489 421.389 113.429C421.185 108.599 419.426 106.475 416.527 102.722Z" fill="#A87B65"/>
<path d="M399.122 122.419L393.927 122.781C392.496 126.808 391.915 128.262 391.238 132.439L392.897 134.449L395.453 133.095C398.769 128.818 398.523 128.063 399.122 122.419Z" fill="#916E5A"/>
<path d="M230.802 250.856L226.909 254.192C231.797 256.003 234.24 261.975 239.698 260.678C239.726 254.477 235.742 253.879 230.802 250.856Z" fill="#B48770"/>
</svg>
