<svg width="24" height="19" viewBox="0 0 24 19" fill="none" xmlns="http://www.w3.org/2000/svg">
<path d="M16.3333 18.3822C15.9662 18.5543 15.5883 18.7124 15.2678 18.427C15.3874 17.742 15.7031 17.4194 15.6768 16.7614C15.1124 15.5287 12.4863 16.9718 11.4424 17.2596C8.94188 17.9486 5.96187 17.8049 3.67306 16.5484C2.02281 15.6505 0.806655 14.1235 0.299622 12.3147C-0.377218 9.90595 0.139385 7.14765 1.37946 4.84544C4.40252 -0.769693 11.7306 -1.54328 16.2173 2.72726C16.9241 3.39992 17.8114 4.76496 18.6281 5.22715C19.3767 5.1481 21.1872 -0.643426 23.183 2.36887C24.5594 4.44483 24.2533 7.71603 21.8317 8.85912L21.687 8.92657C21.9286 10.7374 21.8724 11.5558 21.369 13.3076L21.5531 13.561L21.1035 13.889L21.1429 14.2405C20.9145 14.6746 20.8559 14.8071 20.7172 15.2762C20.1349 16.6804 17.8233 15.7766 16.8427 15.2909C17.4586 16.6596 17.5925 17.3535 16.3333 18.3822Z" fill="#946F5A"/>
<path d="M16.3333 18.3822C15.9662 18.5543 15.5883 18.7124 15.2678 18.427C15.3874 17.742 15.7031 17.4194 15.6768 16.7614C15.1124 15.5287 12.4863 16.9718 11.4424 17.2596C8.94188 17.9486 5.96187 17.8049 3.67306 16.5484C2.02281 15.6505 0.806655 14.1235 0.299622 12.3147C-0.377218 9.90595 0.139385 7.14765 1.37946 4.84544C4.40252 -0.769693 11.7306 -1.54328 16.2173 2.72726C16.9241 3.39992 17.8114 4.76496 18.6281 5.22715C19.3767 5.1481 21.1872 -0.643426 23.183 2.36887C24.5594 4.44483 24.2533 7.71603 21.8317 8.85912L21.687 8.92657C21.9286 10.7374 21.8724 11.5558 21.369 13.3076L21.5531 13.561L21.1035 13.889L21.1429 14.2405C20.9145 14.6746 20.8559 14.8071 20.7172 15.2762L20.5821 14.5429C20.8344 13.5227 21.0557 12.4952 21.2446 11.4615C20.6849 11.7407 20.209 11.8708 19.6123 12.055C19.9639 11.6852 20.826 11.0072 21.2554 10.6397C21.3929 7.79256 20.1002 6.03206 17.2756 5.44813L17.4837 5.03318C16.7435 4.08381 15.9507 3.01617 14.9497 2.33778C10.6161 -0.599419 5.29819 0.0282732 2.33373 4.4605C0.911889 6.61084 0.461064 8.61469 0.603368 11.1666C1.1116 11.3705 1.7095 11.5942 2.19501 11.8296C2.32894 12.1721 2.55854 12.6639 2.5705 13.0122L2.22012 13.4362C2.34448 14.6239 4.81866 16.113 5.85425 16.2676C7.16607 16.6217 8.97895 16.788 10.3219 16.57C11.6421 16.356 13.5004 15.2898 14.7058 15.5986C16.3441 15.8514 16.4481 16.6373 15.916 18.0814L15.5608 18.1206L15.6206 18.2375C15.8801 18.2998 16.069 18.3421 16.3333 18.3822Z" fill="#060202"/>
<path d="M0.603368 11.1666C1.1116 11.3705 1.7095 11.5942 2.19501 11.8296C2.32894 12.1721 2.55854 12.6639 2.5705 13.0122L2.22012 13.4362C2.34448 14.6239 4.81866 16.113 5.85425 16.2676L5.68568 16.4937L5.74308 16.5957C5.80885 16.7149 5.79569 16.6769 5.80884 16.736C3.07278 16.3992 1.0817 13.7437 0.603368 11.1666Z" fill="#B37863"/>
<path d="M5.85425 16.2676C7.16607 16.6217 8.97895 16.788 10.3219 16.57C11.6421 16.356 13.5004 15.2898 14.7058 15.5986L14.5563 15.6361C11.5692 16.399 9.43221 18.0512 5.80884 16.736C5.79569 16.6769 5.80885 16.7149 5.74308 16.5957L5.68568 16.4937L5.85425 16.2676Z" fill="#B37863"/>
<path d="M19.2894 5.63553C20.2413 4.35348 20.4769 2.01635 22.3807 2.31639C23.1843 3.16148 23.421 3.85829 23.4115 5.02411C23.4031 6.11219 22.8028 8.21757 21.5483 8.39276L21.3247 8.22594C21.1621 7.88633 20.8608 7.40871 20.6634 7.07113L20.6658 6.87944L20.5008 6.71322C20.1791 6.37264 19.6565 5.9498 19.2894 5.63553Z" fill="#DA957D"/>
<path d="M19.2894 5.63553C20.2413 4.35348 20.4769 2.01635 22.3807 2.31639L21.9968 2.60745L21.7576 3.01069C20.9624 4.51026 21.3379 5.78238 20.6634 7.07113L20.6658 6.87944L20.5008 6.71322C20.1791 6.37264 19.6565 5.9498 19.2894 5.63553Z" fill="#946F5A"/>
<path d="M20.5008 6.71322C21.125 5.45867 20.6455 3.18564 21.9968 2.60745L21.7576 3.01069C20.9624 4.51026 21.3379 5.78238 20.6634 7.07113L20.6658 6.87944L20.5008 6.71322Z" fill="#1C0A08"/>
<path d="M20.6634 7.07113C21.3379 5.78238 20.9624 4.51026 21.7576 3.01069C21.9382 4.81268 21.815 6.49091 21.3247 8.22594C21.1621 7.88633 20.8608 7.40871 20.6634 7.07113Z" fill="#B37863"/>
<path d="M2.19501 11.8296C3.93614 13.8027 5.09973 13.9141 7.70664 14.2729C8.07854 14.2835 8.6944 14.2826 9.04598 14.3154L9.21817 14.7201C9.81728 14.5873 9.97991 14.4702 10.3985 14.0423C10.1497 13.8121 9.84359 13.5678 9.58051 13.3469C9.8998 13.4111 10.3088 13.5111 10.6233 13.5291L11.0944 13.5107C11.8897 14.7352 13.8484 14.5134 15.1196 14.3644C15.1602 14.3476 15.4078 14.1516 15.4616 14.1103C15.8395 14.2536 16.1026 14.3993 16.4972 14.3556C16.8667 14.5524 17.4503 14.8401 17.7779 15.0686C17.4132 14.9966 17.3092 14.9556 16.948 14.999C16.8954 15.1185 16.8595 15.1675 16.8427 15.2909C17.4586 16.6596 17.5925 17.3535 16.3333 18.3822C16.069 18.3421 15.8801 18.2998 15.6206 18.2375L15.5608 18.1206L15.916 18.0814C16.4481 16.6373 16.3441 15.8514 14.7058 15.5986C13.5004 15.2898 11.6421 16.356 10.3219 16.57C8.97895 16.788 7.16607 16.6217 5.85425 16.2676C4.81866 16.113 2.34448 14.6239 2.22012 13.4362L2.5705 13.0122C2.55854 12.6639 2.32894 12.1721 2.19501 11.8296Z" fill="#130302"/>
<path d="M2.5705 13.0122C4.44437 14.9625 5.80408 15.9369 8.65135 16.0077C9.70129 16.0282 10.7476 15.9042 11.7641 15.639C12.6239 15.4179 13.4418 14.9826 14.3363 14.9276C16.2329 14.8109 17.8711 16.6672 15.916 18.0814C16.4481 16.6373 16.3441 15.8514 14.7058 15.5986C13.5004 15.2898 11.6421 16.356 10.3219 16.57C8.97895 16.788 7.16607 16.6217 5.85425 16.2676C4.81866 16.113 2.34448 14.6239 2.22012 13.4362L2.5705 13.0122Z" fill="#DA957D"/>
<path d="M2.33373 4.4605C2.38874 6.88445 1.7514 8.99788 3.83214 10.8911C5.7658 12.6503 9.03281 13.2577 8.66091 9.47717C9.7814 11.0203 9.35687 11.9908 8.40977 13.4714C8.17778 13.7409 7.94341 14.0082 7.70664 14.2729C5.09973 13.9141 3.93614 13.8027 2.19501 11.8296C1.7095 11.5942 1.1116 11.3705 0.603368 11.1666C0.461064 8.61469 0.911889 6.61084 2.33373 4.4605Z" fill="#7A5242"/>
<path d="M12.8271 9.73106C8.21601 10.6318 7.02018 5.10571 9.79212 3.88668L9.83517 4.34014C9.99182 4.43437 10.1293 4.51976 10.2932 4.60131L10.6591 4.38786L10.6364 4.29076C11.5643 4.63994 11.9111 5.34105 12.2364 6.22345C12.6131 7.4652 12.7877 7.65534 13.6977 8.55281C13.4992 8.68364 13.5745 8.66761 13.3569 8.70779L13.3186 8.86899C13.2624 9.11473 13.2612 9.26696 13.2552 9.5157L13.1034 9.70272L13.0292 9.75474L12.8271 9.73106Z" fill="#DA957D"/>
<path d="M10.6591 4.38786L10.6364 4.29076C11.5643 4.63994 11.9111 5.34105 12.2364 6.22345C12.6131 7.4652 12.7877 7.65534 13.6977 8.55281C13.4992 8.68364 13.5745 8.66761 13.3569 8.70779L13.3186 8.86899C13.2624 9.11473 13.2612 9.26696 13.2552 9.5157L13.1034 9.70272L13.0292 9.75474L12.8271 9.73106L12.7518 9.51975C10.2107 8.8392 11.7748 7.03315 10.2932 4.60131L10.6591 4.38786Z" fill="#B37863"/>
<path d="M10.6591 4.38786L10.6364 4.29076C11.5643 4.63994 11.9111 5.34105 12.2364 6.22345C12.6131 7.4652 12.7877 7.65534 13.6977 8.55281C13.4992 8.68364 13.5745 8.66761 13.3569 8.70779C11.4304 7.2148 12.6131 6.16689 10.6591 4.38786Z" fill="#060202"/>
<path d="M9.41906 9.58112C10.3482 10.1031 12.2352 10.7681 13.0292 9.75474L13.1034 9.70272C13.0842 10.892 13.2015 11.6472 13.9967 12.5715C14.6185 13.2942 16.1504 13.9712 16.4972 14.3556C16.1026 14.3993 15.8395 14.2536 15.4616 14.1103C15.4078 14.1516 15.1602 14.3476 15.1196 14.3644C13.8484 14.5134 11.8897 14.7352 11.0944 13.5107L10.6233 13.5291C10.3088 13.5111 9.8998 13.4111 9.58051 13.3469L9.23251 13.1948C9.0914 12.8656 9.74432 11.6661 9.71204 11.0011C9.68334 10.3994 9.59007 10.1582 9.41906 9.58112Z" fill="#7A5242"/>
<path d="M15.1196 14.3644C14.0206 13.8014 11.7318 12.5011 12.3811 10.9106C12.6059 11.0759 12.6454 11.4291 12.7398 11.7269C13.168 13.079 14.2993 13.5263 15.4616 14.1103C15.4078 14.1516 15.1602 14.3476 15.1196 14.3644Z" fill="#1C0A08"/>
<path d="M10.6233 13.5291C10.64 13.1097 10.579 12.8653 10.7751 12.5497C10.9784 12.8569 11.0119 13.1486 11.0944 13.5107L10.6233 13.5291Z" fill="#33150D"/>
<path d="M8.4002 8.52305C7.73532 6.65445 7.29286 4.17298 9.98946 3.38134C11.3372 2.98552 12.6095 4.45998 13.2421 5.4451C13.4586 5.78329 14.2335 6.60482 14.2921 6.9045L14.0625 6.97373L13.8484 7.07179C13.4741 7.06629 12.7362 6.44289 12.2364 6.22345C11.9111 5.34105 11.5643 4.63994 10.6364 4.29076L10.6591 4.38786L10.2932 4.60131C10.1293 4.51976 9.99182 4.43437 9.83517 4.34014L9.79212 3.88668C7.02018 5.10571 8.21601 10.6318 12.8271 9.73106L13.0292 9.75474C12.2352 10.7681 10.3482 10.1031 9.41906 9.58112C9.59007 10.1582 9.68334 10.3994 9.71204 11.0011C9.74432 11.6661 9.0914 12.8656 9.23251 13.1948L9.58051 13.3469C9.84359 13.5678 10.1497 13.8121 10.3985 14.0423C9.97991 14.4702 9.81728 14.5873 9.21817 14.7201L9.04598 14.3154C8.6944 14.2826 8.07854 14.2835 7.70664 14.2729C7.94341 14.0082 8.17778 13.7409 8.40977 13.4714C9.35687 11.9908 9.7814 11.0203 8.66091 9.47717C8.39304 8.77641 7.42559 8.25519 6.79419 7.83665L6.74757 7.83593V7.75497C7.44952 7.98242 7.74847 8.16 8.4002 8.52305Z" fill="#060202"/>
<path d="M9.79212 3.88668C12.2412 3.8361 12.5282 5.47105 14.0625 6.97373L13.8484 7.07179C13.4741 7.06629 12.7362 6.44289 12.2364 6.22345C11.9111 5.34105 11.5643 4.63994 10.6364 4.29076L10.6591 4.38786L10.2932 4.60131C10.1293 4.51976 9.99182 4.43437 9.83517 4.34014L9.79212 3.88668Z" fill="#B37863"/>
<path d="M8.40977 13.4714C8.91441 13.5262 9.15717 13.5179 9.59006 13.8023L9.67258 14.0098C9.43222 14.2514 9.39516 14.2417 9.04598 14.3154C8.6944 14.2826 8.07854 14.2835 7.70664 14.2729C7.94341 14.0082 8.17778 13.7409 8.40977 13.4714Z" fill="#8A5F4F"/>
<path d="M17.7779 15.0686C17.76 15.0646 18.4177 15.2979 18.4201 15.2988C19.0252 15.602 18.7967 14.6261 19.4341 14.3626C19.824 14.2014 20.1839 14.3825 20.5821 14.5429L20.7172 15.2762C20.1349 16.6804 17.8233 15.7766 16.8427 15.2909C16.8595 15.1675 16.8954 15.1185 16.948 14.999C17.3092 14.9556 17.4132 14.9966 17.7779 15.0686Z" fill="#060202"/>
<path d="M19.4843 14.5265C19.7617 14.4138 20.0774 14.5481 20.1887 14.8259C20.2999 15.1037 20.1636 15.419 19.8861 15.529C19.6099 15.6383 19.2966 15.5036 19.1865 15.2277C19.0753 14.9517 19.2081 14.6383 19.4843 14.5265Z" fill="#DA957D"/>
<path d="M17.4837 5.03318L17.2756 5.44813C16.5498 5.4583 15.7462 5.51563 15.0167 5.55437C15.9865 5.28699 16.4708 5.15528 17.4837 5.03318Z" fill="#1C0A08"/>
<path d="M14.7226 11.6147C14.9342 11.6316 16.5797 12.2199 17.2063 12.3202L17.29 12.5427C16.1898 13.0304 15.281 12.642 14.7226 11.6147Z" fill="#33150D"/>
<path d="M21.369 13.3076C22.279 13.0997 22.8255 12.9901 23.7559 13.1451C23.3266 13.349 22.1427 13.4322 21.5531 13.561L21.369 13.3076Z" fill="#272423"/>
<path d="M21.1429 14.2405L21.1035 13.889C21.8198 14.1417 22.3328 14.0592 23.2644 14.4262C22.5576 14.3593 21.8509 14.2974 21.1429 14.2405Z" fill="#060202"/>
</svg>
