<svg width="50" height="25" viewBox="0 0 50 25" fill="none" xmlns="http://www.w3.org/2000/svg">
<path d="M14.9447 6.30183C16.055 7.2665 16.559 7.81815 17.7757 6.54825C17.6973 6.20522 17.3151 5.93501 17.0407 5.71239C13.6664 2.87297 9.78113 1.33846 5.35819 2.48934C4.50273 2.71056 2.51877 3.84044 1.97273 3.39661C2.07214 2.21212 3.96648 1.31325 4.95076 0.963223C8.78425 -0.40048 12.9468 0.152563 16.4134 2.22472C17.6623 2.97238 19.061 4.11067 20.3533 4.68051L20.5031 4.74351C21.234 4.68891 21.976 4.51109 22.7265 4.49289C25.6135 4.42148 27.3356 5.64938 29.5142 7.2483C30.5013 2.76796 33.933 2.87717 36.372 6.02041C36.7136 4.09386 37.3954 2.04411 40.1774 3.92305C41.3745 4.73091 41.8506 7.34911 41.894 8.82062C45.1268 10.9376 44.2615 12.1753 46.5017 14.6787L47.1822 14.407L47.234 14.5961L46.8251 14.9475L46.8489 15.1547C47.6764 15.5313 48.9183 15.4361 49.2753 16.0844C48.7013 16.1922 47.353 15.1351 47.0576 15.8436C46.4065 17.4033 45.453 17.7351 43.7967 18.1845C43.5699 18.2461 43.3431 18.3049 43.1149 18.3623C43.0084 18.7572 42.9762 19.1786 42.7172 19.4026L42.6822 19.2542C42.5772 18.83 42.5786 18.6592 42.244 18.3987C41.3619 18.5458 41.4487 19.0736 41.0399 19.705L40.8019 20.1433C41.6993 20.5199 42.797 21.1864 42.5968 22.3065C42.2776 22.6117 42.37 22.5795 41.95 22.6327C39.7014 22.9197 40.0318 21.9102 38.9257 21.1219C37.7623 20.2945 36.6212 19.7891 35.4367 18.8412C36.1549 20.5927 36.9488 21.3264 38.3391 22.5557C38.9649 23.1101 39.413 23.5847 39.0237 24.4612C37.3954 25.2705 31.8944 20.5143 30.6805 19.2934C26.5656 18.8944 23.449 17.2703 20.3365 14.6801C16.8111 15.0273 15.5006 14.176 13.1624 11.7216C11.8253 12.1697 9.5809 13.651 8.2508 12.7843C7.94278 12.3867 7.94278 12.3111 7.90498 11.8043C8.39922 9.90431 13.8148 9.62428 14.3035 9.20985C13.5082 8.16537 8.90886 10.5455 9.3499 7.50311C10.0359 6.57344 10.7332 7.40931 11.6097 7.17409C12.7409 6.86887 13.7924 6.54965 14.9447 6.30183Z" fill="#060202"/>
<path d="M39.4872 18.5334C39.9646 18.5194 40.4084 18.5068 40.8873 18.518C41.2037 18.8554 41.0581 19.0806 41.0399 19.705L40.8019 20.1433C40.4182 19.7848 39.8316 18.98 39.4872 18.5334Z" fill="#FEFEFE"/>
<path d="M30.9227 5.17359C31.9252 4.37973 32.3508 4.28871 33.5493 4.54633C35.9085 5.76022 36.3285 7.15754 37.4108 9.53072C37.5942 8.90627 37.457 9.02247 37.8868 8.71305C43.1316 8.48903 43.5614 11.8297 46.0858 15.1017C45.3942 15.2669 45.453 15.1507 44.977 15.5834C44.9028 16.016 45.0456 16.1784 45.2528 16.5985C45.1072 17.2131 44.1271 17.6135 43.5783 17.5603C43.6903 17.3391 43.7799 17.1613 43.8723 16.9275C43.4634 16.9765 42.4918 17.8347 41.8085 18.1834C42.2412 17.4623 42.3686 17.2957 42.9426 16.6811L42.9076 16.5845C42.4176 16.8827 42.3644 16.9373 42.0101 17.3895C41.8463 17.7073 41.8561 17.8487 41.5271 17.9244C40.2796 18.2114 38.5113 17.6681 37.3212 18.0602C36.5133 18.2954 35.9883 18.3626 35.1482 18.4802C35.0068 18.0812 34.9578 17.9537 34.7534 17.5841L34.5518 17.4315C34.5028 18.4886 35.6593 20.677 36.3971 21.5324C37.3842 22.6749 38.3013 22.3627 38.5127 23.7096L38.3923 23.9588L38.1948 23.963L37.8602 23.508L37.7356 23.5766L37.828 23.9686L37.625 24.0554C36.8269 23.6704 36.2949 23.0305 35.6424 22.4103C34.1219 22.0057 31.5037 19.3665 30.4103 18.1498L30.2268 18.203L30.2465 18.5838L30.0462 18.6776C26.1413 17.9566 23.9474 16.6404 20.8223 14.3975L22.3582 13.9648C22.8441 13.7954 22.9071 13.6988 23.2627 13.3194C21.276 13.9522 19.0582 14.6145 17.0182 13.8822C15.3731 13.2928 14.4294 12.0509 13.1777 10.935L13.5866 10.4212L13.5138 9.75193C13.77 9.77433 14.3566 10.0544 14.7837 10.0306C15.8716 9.93114 16.6668 8.49744 17.3627 7.79739C21.3894 3.74688 25.7409 4.57434 29.6262 8.14601C30.7001 10.8734 31.8244 12.3407 34.9928 12.3239C35.1146 12.1195 35.0852 12.2315 35.0754 11.9893C34.7268 11.9417 34.3964 11.9081 34.0463 11.8745C31.0655 11.0876 28.9527 7.908 30.9227 5.17359Z" fill="#946F5A"/>
<path d="M13.5866 10.4212L13.7826 10.3846C15.7049 12.0787 16.3798 13.0504 19.4698 13.0854C20.4947 13.0966 22.6061 12.5799 23.4643 12.7312C23.6113 12.9972 23.6071 12.9776 23.6379 13.2786C25.4903 14.7249 28.6797 16.2426 29.6598 17.0953L29.608 17.5111C29.8278 17.7827 29.9594 17.9818 30.2268 18.203L30.2465 18.5838L30.0462 18.6776C26.1413 17.9566 23.9474 16.6404 20.8223 14.3975L22.3582 13.9648C22.8441 13.7954 22.9071 13.6988 23.2627 13.3194C21.276 13.9522 19.0582 14.6145 17.0182 13.8822C15.3731 13.2928 14.4294 12.0509 13.1777 10.935L13.5866 10.4212Z" fill="#7A5242"/>
<path d="M22.3582 13.9648C22.9785 14.1049 24.1714 14.8216 24.772 15.159C26.3612 16.0523 27.9643 16.7453 29.608 17.5111C29.8278 17.7827 29.9594 17.9818 30.2268 18.203L30.2465 18.5838L30.0462 18.6776C26.1413 17.9566 23.9474 16.6404 20.8223 14.3975L22.3582 13.9648Z" fill="#B37863"/>
<path d="M30.9227 5.17359C31.9252 4.37973 32.3508 4.28871 33.5493 4.54633L32.7037 5.01676L32.2318 5.33879C34.5602 6.62689 34.2172 7.9528 34.4888 10.319C34.8472 10.9476 34.9537 11.166 35.6355 11.5161C35.1707 11.9095 34.647 11.8241 34.0463 11.8745C31.0655 11.0876 28.9527 7.908 30.9227 5.17359Z" fill="#DA957D"/>
<path d="M30.9227 5.17359C31.9252 4.37973 32.3508 4.28871 33.5493 4.54633L32.7037 5.01676L32.2318 5.33879C32.0064 5.34299 31.1915 5.21139 30.9227 5.17359Z" fill="#946F5A"/>
<path d="M35.1637 17.4216C34.7954 17.0352 34.2032 16.4584 34.2704 15.8941L34.4566 15.7933C36.925 17.0128 39.2687 17.4273 42.0101 17.3895C41.8463 17.7073 41.8561 17.8487 41.5271 17.9244C40.2796 18.2114 38.5113 17.6681 37.3212 18.0602C36.5133 18.2954 35.9883 18.3626 35.1482 18.4802C35.0068 18.0812 34.9578 17.9537 34.7534 17.5841L35.1637 17.4216Z" fill="#6A4A3D"/>
<path d="M35.1637 17.4216C35.6397 17.5756 37.0832 17.9033 37.3212 18.0602C36.5133 18.2954 35.9883 18.3626 35.1482 18.4802C35.0068 18.0812 34.9578 17.9537 34.7534 17.5841L35.1637 17.4216Z" fill="#946F5A"/>
<path d="M32.7037 5.01676L33.3421 5.13561C34.5742 5.96308 35.4199 7.25397 35.6887 8.71428C35.7657 9.11331 35.7531 9.30792 35.6425 9.69435C35.1735 10.1704 35.2253 9.43411 34.4888 10.319C34.2172 7.9528 34.5602 6.62689 32.2318 5.33879L32.7037 5.01676Z" fill="#B37863"/>
<path d="M29.6262 8.14601C30.7001 10.8734 31.8244 12.3407 34.9928 12.3239C33.9119 12.4891 33.2847 12.6751 32.1856 12.4091C30.3276 11.9597 29.055 10.0432 29.6262 8.14601Z" fill="#7A5242"/>
<path d="M29.6598 17.0953C30.6287 17.3263 32.1002 19.0921 32.9081 19.8621C33.5745 20.4978 35.2602 21.7466 35.6424 22.4103C34.1219 22.0057 31.5037 19.3665 30.4103 18.1498L30.2268 18.203C29.9594 17.9818 29.8278 17.7827 29.608 17.5111L29.6598 17.0953Z" fill="#6A4A3D"/>
<path d="M33.3421 5.13561C35.0559 4.9312 36.4713 9.31355 36.1521 10.5274C35.9505 10.4686 35.8273 10.4266 35.6327 10.3482C35.445 10.6758 35.6257 11.068 35.6355 11.5161C34.9537 11.166 34.8472 10.9476 34.4888 10.319C35.2253 9.43411 35.1735 10.1704 35.6425 9.69435C35.7531 9.30792 35.7657 9.11331 35.6887 8.71428C35.4199 7.25397 34.5742 5.96308 33.3421 5.13561Z" fill="#1C0A08"/>
<path d="M40.0962 15.3146C39.1848 15.3258 38.4567 15.1297 38.0227 14.2421C37.7538 13.6876 37.7315 13.0464 37.9611 12.4751C38.5001 11.1352 39.553 11.1492 40.6731 11.6351C42.2552 12.9876 42.2636 14.6551 40.0962 15.3146Z" fill="#1C0A08"/>
<path d="M40.0962 15.3146C39.1848 15.3258 38.4567 15.1297 38.0227 14.2421C37.7538 13.6876 37.7315 13.0464 37.9611 12.4751C38.5001 11.1352 39.553 11.1492 40.6731 11.6351L40.4028 11.8297C40.0052 12.646 39.0251 12.3435 39.1694 13.4216C39.2898 14.3401 39.7994 14.4171 40.0696 14.9155L40.0962 15.3146Z" fill="#FEFEFE"/>
<path d="M40.0962 15.3146C39.1848 15.3258 38.4567 15.1297 38.0227 14.2421C37.7538 13.6876 37.7315 13.0464 37.9611 12.4751C38.5001 11.1352 39.553 11.1492 40.6731 11.6351L40.4028 11.8297C39.8232 11.6701 39.4522 11.5455 38.9019 11.8801C38.5197 12.1167 38.2565 12.5018 38.1725 12.9428C37.9289 14.2645 38.8879 14.8749 40.0696 14.9155L40.0962 15.3146Z" fill="#060202"/>
<path d="M39.532 9.57131L39.6104 9.65393L39.602 9.89475C39.2505 10.3288 38.8403 10.5752 38.3741 10.8622L38.2159 10.6438C38.5407 10.1538 39.0475 9.88494 39.532 9.57131Z" fill="#060202"/>
<path d="M38.1319 3.66844C39.2352 3.88266 39.8512 4.35309 40.4771 5.25756C40.9923 6.00102 41.5733 7.23871 41.3745 8.16418C41.3101 8.4652 41.2835 8.5086 41.0343 8.68081L40.4098 8.5436C39.4158 8.35739 38.3853 8.29719 37.38 8.19778C37.1098 7.30451 36.8396 6.31183 37.0006 5.37236C37.1336 4.5967 37.5116 4.12348 38.1319 3.66844Z" fill="#7A5242"/>
<path d="M7.87134 0.796863C8.83602 0.62325 10.1031 0.738056 11.0608 0.899068C15.0259 1.56272 16.6738 3.42765 19.9571 5.21138L18.4701 6.10185C17.7743 5.4298 16.9552 4.85437 16.1922 4.25652C15.2233 3.55507 14.197 2.93202 13.0895 2.47279C9.42266 0.955071 6.12541 1.43671 2.56634 2.92642C4.21986 1.55572 5.80619 1.16649 7.87134 0.796863Z" fill="#C28A7C"/>
<path d="M13.5138 9.75193L13.5866 10.4212L13.1777 10.935C12.0997 11.4783 9.71952 12.8628 8.60924 12.3504L8.55603 12.111C8.95786 12.1432 9.17908 12.1936 9.55991 12.0872L9.45769 11.8926C9.11046 11.8296 8.84725 11.8198 8.56863 11.6097C8.68344 11.4221 12.9019 9.97735 13.5138 9.75193Z" fill="#DA957D"/>
<path d="M36.0737 18.8035C38.9131 18.1398 38.7507 18.1622 40.3902 20.5242L39.595 21.017C38.8221 20.3786 37.1826 19.6183 36.0737 18.8035Z" fill="#7A5242"/>
<path d="M13.945 8.03945C12.7493 8.43428 10.694 9.25754 9.8581 7.95405C10.0863 7.67402 11.9709 7.60822 12.4567 7.49481C13.1148 7.3408 13.7308 7.14619 14.3693 6.94037C14.5275 7.50601 14.5709 7.34499 14.4098 7.81682C14.309 7.86582 14.0346 8.00865 13.945 8.03945Z" fill="#B37863"/>
<path d="M14.3693 6.94037C15.0175 6.89277 15.6797 7.47939 16.4484 7.85462C16.3126 8.32365 15.4921 8.99992 15.1015 9.30234L13.945 8.03945C14.0346 8.00865 14.309 7.86582 14.4098 7.81682C14.5709 7.34499 14.5275 7.50601 14.3693 6.94037Z" fill="#7A5242"/>
<path d="M39.595 21.017L40.3902 20.5242C40.5303 20.6054 40.8215 20.7874 40.9601 20.8308C41.7651 20.9736 42.307 21.2886 42.1334 22.2057L41.9122 22.3695C41.6195 22.2295 41.6251 22.2519 41.4487 21.9831C40.2404 21.7072 40.4812 22.1259 39.595 21.017Z" fill="#946F5A"/>
<path d="M40.9601 20.8308C41.7651 20.9736 42.307 21.2886 42.1334 22.2057L41.9122 22.3695C41.6195 22.2295 41.6251 22.2519 41.4487 21.9831C41.3927 21.5322 41.1799 21.2326 40.9601 20.8308Z" fill="#6A4A3D"/>
<path d="M45.1506 15.4811C45.586 15.4447 45.936 15.4013 46.3575 15.5525C46.5367 15.9151 46.4905 15.9655 46.4121 16.3463C46.0466 16.4331 45.9164 16.4247 45.565 16.2959C45.2878 16.0173 45.2164 15.8661 45.1506 15.4811Z" fill="#DA957D"/>
<path d="M7.41496 15.6659C13.1974 15.6421 19.6323 17.129 24.7567 19.8088C23.3328 19.7402 20.94 18.4955 19.4937 18.0209C17.6189 17.4118 15.7148 16.8994 13.7868 16.4835C12.4189 16.1867 8.25922 16.1055 7.41496 15.6659Z" fill="#6B696A"/>
<path d="M1.87189 5.83565C3.45821 5.65504 9.40865 5.34001 10.5931 5.93225C8.04915 6.20807 4.7393 5.67184 1.86068 6.06247L1.87189 5.83565Z" fill="#6B696A"/>
<path d="M19.1829 0.553206C21.7451 1.23086 24.7259 2.01351 27.0221 3.38562C24.3969 2.46295 21.7548 1.58507 19.1002 0.750609L19.1829 0.553206Z" fill="#6B696A"/>
<path d="M22.5122 0.224236C24.366 0.41605 26.5684 1.54735 28.1785 2.45601C26.7182 2.3188 23.9012 0.887886 22.5122 0.224236Z" fill="#848181"/>
<path d="M19.1002 0.750609C18.389 0.578396 17.6777 0.331835 16.9917 0.168023L17.1303 0C17.8009 0.124609 18.5234 0.358591 19.1829 0.553206L19.1002 0.750609Z" fill="#9D9B9C"/>
<path d="M47.1822 14.407C47.8542 14.064 48.2868 14.032 49.0219 14.1454C48.6691 14.3848 47.7086 14.5093 47.234 14.5961L47.1822 14.407Z" fill="#403D3D"/>
<path d="M1.86068 6.06247C1.40564 6.15768 0.413031 6.34804 0 6.22203C0.574044 5.94901 1.23064 5.91686 1.87189 5.83565L1.86068 6.06247Z" fill="#9D9B9C"/>
</svg>
